G04 (created by PCBNEW (2013-02-09 BZR 3938)-testing) date Sat 09 Feb 2013 11:14:46 PM CET*
%MOIN*%
G04 Gerber Fmt 3.4, Leading zero omitted, Abs format*
%FSLAX34Y34*%
G01*
G70*
G90*
G04 APERTURE LIST*
%ADD10C,2.3622e-06*%
%ADD11C,0.015*%
%ADD12R,0.0649606X0.0649606*%
%ADD13C,0.0649606*%
%ADD14C,0.06*%
%ADD15C,0.0314961*%
%ADD16C,0.055*%
%ADD17C,0.008*%
%ADD18C,0.08*%
%ADD19C,0.02*%
G04 APERTURE END LIST*
G54D10*
G54D11*
X54100Y-17400D02*
X41700Y-17400D01*
X54100Y-29800D02*
X54100Y-17400D01*
X41700Y-29800D02*
X54100Y-29800D01*
X41700Y-17400D02*
X41700Y-29800D01*
G54D12*
X43300Y-20100D03*
G54D13*
X43300Y-21100D03*
X43300Y-22100D03*
X43300Y-23100D03*
X43300Y-24100D03*
X43300Y-25100D03*
X43300Y-26100D03*
X43300Y-27100D03*
G54D12*
X44300Y-20100D03*
G54D13*
X44300Y-21100D03*
X44300Y-22100D03*
X44300Y-23100D03*
X44300Y-24100D03*
X44300Y-25100D03*
X44300Y-26100D03*
X44300Y-27100D03*
G54D12*
X53300Y-27100D03*
G54D13*
X52300Y-27100D03*
X51300Y-27100D03*
X50300Y-27100D03*
X49300Y-27100D03*
X48300Y-27100D03*
X47300Y-27100D03*
X46300Y-27100D03*
G54D12*
X53300Y-20100D03*
G54D13*
X52300Y-20100D03*
X51300Y-20100D03*
X50300Y-20100D03*
X49300Y-20100D03*
X48300Y-20100D03*
X47300Y-20100D03*
X46300Y-20100D03*
G54D14*
X53100Y-24600D03*
X52100Y-23600D03*
X53100Y-22600D03*
G54D15*
X48700Y-21771D03*
G54D16*
X46300Y-23600D03*
G54D15*
X53319Y-25207D03*
G54D17*
X50300Y-27100D02*
X50300Y-20100D01*
X49300Y-27100D02*
X49300Y-20100D01*
X52300Y-20100D02*
X52300Y-20100D01*
X51000Y-25800D02*
X52300Y-27100D01*
X51000Y-21400D02*
X51000Y-25800D01*
X52300Y-20100D02*
X51000Y-21400D01*
X48800Y-21671D02*
X48700Y-21771D01*
X48800Y-19868D02*
X48800Y-21671D01*
X49066Y-19602D02*
X48800Y-19868D01*
X51802Y-19602D02*
X49066Y-19602D01*
X52300Y-20100D02*
X51802Y-19602D01*
G54D18*
X43300Y-21100D02*
X43300Y-20100D01*
X43300Y-22100D02*
X43300Y-21100D01*
X43300Y-23100D02*
X43300Y-22100D01*
X43300Y-24100D02*
X43300Y-23100D01*
X43300Y-25100D02*
X43300Y-24100D01*
X43300Y-26100D02*
X43300Y-25100D01*
X43300Y-27100D02*
X43300Y-26100D01*
X43300Y-28200D02*
X43300Y-27100D01*
X47300Y-28200D02*
X43300Y-28200D01*
X47300Y-27100D02*
X47300Y-28200D01*
X47300Y-27100D02*
X47300Y-20100D01*
X43300Y-19000D02*
X43300Y-20100D01*
X47300Y-19000D02*
X43300Y-19000D01*
X47300Y-20100D02*
X47300Y-19000D01*
G54D19*
X52100Y-23600D02*
X53100Y-24600D01*
G54D18*
X46300Y-20100D02*
X46300Y-23600D01*
X46300Y-23600D02*
X46300Y-27100D01*
G54D17*
X53524Y-25002D02*
X53319Y-25207D01*
X53524Y-23024D02*
X53524Y-25002D01*
X53100Y-22600D02*
X53524Y-23024D01*
M02*
