M48
INCH,TZ
T1C0.025
T2C0.032
T3C0.040
%
G90
G05
T1
X048700Y-021771
X053319Y-025207
T2
X046300Y-023600
X052100Y-023600
X053100Y-022600
X053100Y-024600
T3
X043300Y-020100
X043300Y-021100
X043300Y-022100
X043300Y-023100
X043300Y-024100
X043300Y-025100
X043300Y-026100
X043300Y-027100
X044300Y-020100
X044300Y-021100
X044300Y-022100
X044300Y-023100
X044300Y-024100
X044300Y-025100
X044300Y-026100
X044300Y-027100
X046300Y-020100
X046300Y-027100
X047300Y-020100
X047300Y-027100
X048300Y-020100
X048300Y-027100
X049300Y-020100
X049300Y-027100
X050300Y-020100
X050300Y-027100
X051300Y-020100
X051300Y-027100
X052300Y-020100
X052300Y-027100
X053300Y-020100
X053300Y-027100
T0
M30
