G04 (created by PCBNEW (2013-02-09 BZR 3938)-testing) date Sat 09 Feb 2013 11:14:46 PM CET*
%MOIN*%
G04 Gerber Fmt 3.4, Leading zero omitted, Abs format*
%FSLAX34Y34*%
G01*
G70*
G90*
G04 APERTURE LIST*
%ADD10C,2.3622e-06*%
%ADD11C,0.015*%
%ADD12R,0.0649606X0.0649606*%
%ADD13C,0.0649606*%
%ADD14C,0.06*%
G04 APERTURE END LIST*
G54D10*
G54D11*
X54100Y-17400D02*
X41700Y-17400D01*
X54100Y-29800D02*
X54100Y-17400D01*
X41700Y-29800D02*
X54100Y-29800D01*
X41700Y-17400D02*
X41700Y-29800D01*
G54D12*
X43300Y-20100D03*
G54D13*
X43300Y-21100D03*
X43300Y-22100D03*
X43300Y-23100D03*
X43300Y-24100D03*
X43300Y-25100D03*
X43300Y-26100D03*
X43300Y-27100D03*
G54D12*
X44300Y-20100D03*
G54D13*
X44300Y-21100D03*
X44300Y-22100D03*
X44300Y-23100D03*
X44300Y-24100D03*
X44300Y-25100D03*
X44300Y-26100D03*
X44300Y-27100D03*
G54D12*
X53300Y-27100D03*
G54D13*
X52300Y-27100D03*
X51300Y-27100D03*
X50300Y-27100D03*
X49300Y-27100D03*
X48300Y-27100D03*
X47300Y-27100D03*
X46300Y-27100D03*
G54D12*
X53300Y-20100D03*
G54D13*
X52300Y-20100D03*
X51300Y-20100D03*
X50300Y-20100D03*
X49300Y-20100D03*
X48300Y-20100D03*
X47300Y-20100D03*
X46300Y-20100D03*
G54D14*
X53100Y-24600D03*
X52100Y-23600D03*
X53100Y-22600D03*
M02*
