G04 (created by PCBNEW (2011-07-08)-stable) date Wed 05 Oct 2011 11:32:16 AM CEST*
G01*
G70*
G90*
%MOIN*%
G04 Gerber Fmt 3.4, Leading zero omitted, Abs format*
%FSLAX34Y34*%
G04 APERTURE LIST*
%ADD10C,0.001000*%
%ADD11C,0.015000*%
%ADD12C,0.008000*%
G04 APERTURE END LIST*
G54D10*
G54D11*
X54100Y-17400D02*
X41700Y-17400D01*
X54100Y-29800D02*
X54100Y-17400D01*
X41700Y-29800D02*
X54100Y-29800D01*
X41700Y-17400D02*
X41700Y-29800D01*
G54D10*
X48575Y-21646D02*
X48825Y-21896D01*
X48825Y-21646D02*
X48575Y-21896D01*
X43460Y-20100D02*
X43456Y-20131D01*
X43447Y-20160D01*
X43433Y-20188D01*
X43413Y-20212D01*
X43389Y-20232D01*
X43362Y-20247D01*
X43332Y-20256D01*
X43301Y-20259D01*
X43271Y-20257D01*
X43241Y-20248D01*
X43213Y-20233D01*
X43189Y-20214D01*
X43168Y-20190D01*
X43153Y-20163D01*
X43144Y-20133D01*
X43141Y-20102D01*
X43143Y-20072D01*
X43152Y-20042D01*
X43166Y-20014D01*
X43185Y-19989D01*
X43209Y-19969D01*
X43236Y-19954D01*
X43266Y-19944D01*
X43297Y-19941D01*
X43327Y-19943D01*
X43357Y-19951D01*
X43385Y-19965D01*
X43410Y-19985D01*
X43430Y-20008D01*
X43446Y-20035D01*
X43456Y-20065D01*
X43459Y-20096D01*
X43460Y-20100D01*
X43460Y-21100D02*
X43456Y-21131D01*
X43447Y-21160D01*
X43433Y-21188D01*
X43413Y-21212D01*
X43389Y-21232D01*
X43362Y-21247D01*
X43332Y-21256D01*
X43301Y-21259D01*
X43271Y-21257D01*
X43241Y-21248D01*
X43213Y-21233D01*
X43189Y-21214D01*
X43168Y-21190D01*
X43153Y-21163D01*
X43144Y-21133D01*
X43141Y-21102D01*
X43143Y-21072D01*
X43152Y-21042D01*
X43166Y-21014D01*
X43185Y-20989D01*
X43209Y-20969D01*
X43236Y-20954D01*
X43266Y-20944D01*
X43297Y-20941D01*
X43327Y-20943D01*
X43357Y-20951D01*
X43385Y-20965D01*
X43410Y-20985D01*
X43430Y-21008D01*
X43446Y-21035D01*
X43456Y-21065D01*
X43459Y-21096D01*
X43460Y-21100D01*
X43460Y-22100D02*
X43456Y-22131D01*
X43447Y-22160D01*
X43433Y-22188D01*
X43413Y-22212D01*
X43389Y-22232D01*
X43362Y-22247D01*
X43332Y-22256D01*
X43301Y-22259D01*
X43271Y-22257D01*
X43241Y-22248D01*
X43213Y-22233D01*
X43189Y-22214D01*
X43168Y-22190D01*
X43153Y-22163D01*
X43144Y-22133D01*
X43141Y-22102D01*
X43143Y-22072D01*
X43152Y-22042D01*
X43166Y-22014D01*
X43185Y-21989D01*
X43209Y-21969D01*
X43236Y-21954D01*
X43266Y-21944D01*
X43297Y-21941D01*
X43327Y-21943D01*
X43357Y-21951D01*
X43385Y-21965D01*
X43410Y-21985D01*
X43430Y-22008D01*
X43446Y-22035D01*
X43456Y-22065D01*
X43459Y-22096D01*
X43460Y-22100D01*
X43460Y-23100D02*
X43456Y-23131D01*
X43447Y-23160D01*
X43433Y-23188D01*
X43413Y-23212D01*
X43389Y-23232D01*
X43362Y-23247D01*
X43332Y-23256D01*
X43301Y-23259D01*
X43271Y-23257D01*
X43241Y-23248D01*
X43213Y-23233D01*
X43189Y-23214D01*
X43168Y-23190D01*
X43153Y-23163D01*
X43144Y-23133D01*
X43141Y-23102D01*
X43143Y-23072D01*
X43152Y-23042D01*
X43166Y-23014D01*
X43185Y-22989D01*
X43209Y-22969D01*
X43236Y-22954D01*
X43266Y-22944D01*
X43297Y-22941D01*
X43327Y-22943D01*
X43357Y-22951D01*
X43385Y-22965D01*
X43410Y-22985D01*
X43430Y-23008D01*
X43446Y-23035D01*
X43456Y-23065D01*
X43459Y-23096D01*
X43460Y-23100D01*
X43460Y-24100D02*
X43456Y-24131D01*
X43447Y-24160D01*
X43433Y-24188D01*
X43413Y-24212D01*
X43389Y-24232D01*
X43362Y-24247D01*
X43332Y-24256D01*
X43301Y-24259D01*
X43271Y-24257D01*
X43241Y-24248D01*
X43213Y-24233D01*
X43189Y-24214D01*
X43168Y-24190D01*
X43153Y-24163D01*
X43144Y-24133D01*
X43141Y-24102D01*
X43143Y-24072D01*
X43152Y-24042D01*
X43166Y-24014D01*
X43185Y-23989D01*
X43209Y-23969D01*
X43236Y-23954D01*
X43266Y-23944D01*
X43297Y-23941D01*
X43327Y-23943D01*
X43357Y-23951D01*
X43385Y-23965D01*
X43410Y-23985D01*
X43430Y-24008D01*
X43446Y-24035D01*
X43456Y-24065D01*
X43459Y-24096D01*
X43460Y-24100D01*
X43460Y-25100D02*
X43456Y-25131D01*
X43447Y-25160D01*
X43433Y-25188D01*
X43413Y-25212D01*
X43389Y-25232D01*
X43362Y-25247D01*
X43332Y-25256D01*
X43301Y-25259D01*
X43271Y-25257D01*
X43241Y-25248D01*
X43213Y-25233D01*
X43189Y-25214D01*
X43168Y-25190D01*
X43153Y-25163D01*
X43144Y-25133D01*
X43141Y-25102D01*
X43143Y-25072D01*
X43152Y-25042D01*
X43166Y-25014D01*
X43185Y-24989D01*
X43209Y-24969D01*
X43236Y-24954D01*
X43266Y-24944D01*
X43297Y-24941D01*
X43327Y-24943D01*
X43357Y-24951D01*
X43385Y-24965D01*
X43410Y-24985D01*
X43430Y-25008D01*
X43446Y-25035D01*
X43456Y-25065D01*
X43459Y-25096D01*
X43460Y-25100D01*
X43460Y-26100D02*
X43456Y-26131D01*
X43447Y-26160D01*
X43433Y-26188D01*
X43413Y-26212D01*
X43389Y-26232D01*
X43362Y-26247D01*
X43332Y-26256D01*
X43301Y-26259D01*
X43271Y-26257D01*
X43241Y-26248D01*
X43213Y-26233D01*
X43189Y-26214D01*
X43168Y-26190D01*
X43153Y-26163D01*
X43144Y-26133D01*
X43141Y-26102D01*
X43143Y-26072D01*
X43152Y-26042D01*
X43166Y-26014D01*
X43185Y-25989D01*
X43209Y-25969D01*
X43236Y-25954D01*
X43266Y-25944D01*
X43297Y-25941D01*
X43327Y-25943D01*
X43357Y-25951D01*
X43385Y-25965D01*
X43410Y-25985D01*
X43430Y-26008D01*
X43446Y-26035D01*
X43456Y-26065D01*
X43459Y-26096D01*
X43460Y-26100D01*
X43460Y-27100D02*
X43456Y-27131D01*
X43447Y-27160D01*
X43433Y-27188D01*
X43413Y-27212D01*
X43389Y-27232D01*
X43362Y-27247D01*
X43332Y-27256D01*
X43301Y-27259D01*
X43271Y-27257D01*
X43241Y-27248D01*
X43213Y-27233D01*
X43189Y-27214D01*
X43168Y-27190D01*
X43153Y-27163D01*
X43144Y-27133D01*
X43141Y-27102D01*
X43143Y-27072D01*
X43152Y-27042D01*
X43166Y-27014D01*
X43185Y-26989D01*
X43209Y-26969D01*
X43236Y-26954D01*
X43266Y-26944D01*
X43297Y-26941D01*
X43327Y-26943D01*
X43357Y-26951D01*
X43385Y-26965D01*
X43410Y-26985D01*
X43430Y-27008D01*
X43446Y-27035D01*
X43456Y-27065D01*
X43459Y-27096D01*
X43460Y-27100D01*
X44460Y-20100D02*
X44456Y-20131D01*
X44447Y-20160D01*
X44433Y-20188D01*
X44413Y-20212D01*
X44389Y-20232D01*
X44362Y-20247D01*
X44332Y-20256D01*
X44301Y-20259D01*
X44271Y-20257D01*
X44241Y-20248D01*
X44213Y-20233D01*
X44189Y-20214D01*
X44168Y-20190D01*
X44153Y-20163D01*
X44144Y-20133D01*
X44141Y-20102D01*
X44143Y-20072D01*
X44152Y-20042D01*
X44166Y-20014D01*
X44185Y-19989D01*
X44209Y-19969D01*
X44236Y-19954D01*
X44266Y-19944D01*
X44297Y-19941D01*
X44327Y-19943D01*
X44357Y-19951D01*
X44385Y-19965D01*
X44410Y-19985D01*
X44430Y-20008D01*
X44446Y-20035D01*
X44456Y-20065D01*
X44459Y-20096D01*
X44460Y-20100D01*
X44460Y-21100D02*
X44456Y-21131D01*
X44447Y-21160D01*
X44433Y-21188D01*
X44413Y-21212D01*
X44389Y-21232D01*
X44362Y-21247D01*
X44332Y-21256D01*
X44301Y-21259D01*
X44271Y-21257D01*
X44241Y-21248D01*
X44213Y-21233D01*
X44189Y-21214D01*
X44168Y-21190D01*
X44153Y-21163D01*
X44144Y-21133D01*
X44141Y-21102D01*
X44143Y-21072D01*
X44152Y-21042D01*
X44166Y-21014D01*
X44185Y-20989D01*
X44209Y-20969D01*
X44236Y-20954D01*
X44266Y-20944D01*
X44297Y-20941D01*
X44327Y-20943D01*
X44357Y-20951D01*
X44385Y-20965D01*
X44410Y-20985D01*
X44430Y-21008D01*
X44446Y-21035D01*
X44456Y-21065D01*
X44459Y-21096D01*
X44460Y-21100D01*
X44460Y-22100D02*
X44456Y-22131D01*
X44447Y-22160D01*
X44433Y-22188D01*
X44413Y-22212D01*
X44389Y-22232D01*
X44362Y-22247D01*
X44332Y-22256D01*
X44301Y-22259D01*
X44271Y-22257D01*
X44241Y-22248D01*
X44213Y-22233D01*
X44189Y-22214D01*
X44168Y-22190D01*
X44153Y-22163D01*
X44144Y-22133D01*
X44141Y-22102D01*
X44143Y-22072D01*
X44152Y-22042D01*
X44166Y-22014D01*
X44185Y-21989D01*
X44209Y-21969D01*
X44236Y-21954D01*
X44266Y-21944D01*
X44297Y-21941D01*
X44327Y-21943D01*
X44357Y-21951D01*
X44385Y-21965D01*
X44410Y-21985D01*
X44430Y-22008D01*
X44446Y-22035D01*
X44456Y-22065D01*
X44459Y-22096D01*
X44460Y-22100D01*
X44460Y-23100D02*
X44456Y-23131D01*
X44447Y-23160D01*
X44433Y-23188D01*
X44413Y-23212D01*
X44389Y-23232D01*
X44362Y-23247D01*
X44332Y-23256D01*
X44301Y-23259D01*
X44271Y-23257D01*
X44241Y-23248D01*
X44213Y-23233D01*
X44189Y-23214D01*
X44168Y-23190D01*
X44153Y-23163D01*
X44144Y-23133D01*
X44141Y-23102D01*
X44143Y-23072D01*
X44152Y-23042D01*
X44166Y-23014D01*
X44185Y-22989D01*
X44209Y-22969D01*
X44236Y-22954D01*
X44266Y-22944D01*
X44297Y-22941D01*
X44327Y-22943D01*
X44357Y-22951D01*
X44385Y-22965D01*
X44410Y-22985D01*
X44430Y-23008D01*
X44446Y-23035D01*
X44456Y-23065D01*
X44459Y-23096D01*
X44460Y-23100D01*
X44460Y-24100D02*
X44456Y-24131D01*
X44447Y-24160D01*
X44433Y-24188D01*
X44413Y-24212D01*
X44389Y-24232D01*
X44362Y-24247D01*
X44332Y-24256D01*
X44301Y-24259D01*
X44271Y-24257D01*
X44241Y-24248D01*
X44213Y-24233D01*
X44189Y-24214D01*
X44168Y-24190D01*
X44153Y-24163D01*
X44144Y-24133D01*
X44141Y-24102D01*
X44143Y-24072D01*
X44152Y-24042D01*
X44166Y-24014D01*
X44185Y-23989D01*
X44209Y-23969D01*
X44236Y-23954D01*
X44266Y-23944D01*
X44297Y-23941D01*
X44327Y-23943D01*
X44357Y-23951D01*
X44385Y-23965D01*
X44410Y-23985D01*
X44430Y-24008D01*
X44446Y-24035D01*
X44456Y-24065D01*
X44459Y-24096D01*
X44460Y-24100D01*
X44460Y-25100D02*
X44456Y-25131D01*
X44447Y-25160D01*
X44433Y-25188D01*
X44413Y-25212D01*
X44389Y-25232D01*
X44362Y-25247D01*
X44332Y-25256D01*
X44301Y-25259D01*
X44271Y-25257D01*
X44241Y-25248D01*
X44213Y-25233D01*
X44189Y-25214D01*
X44168Y-25190D01*
X44153Y-25163D01*
X44144Y-25133D01*
X44141Y-25102D01*
X44143Y-25072D01*
X44152Y-25042D01*
X44166Y-25014D01*
X44185Y-24989D01*
X44209Y-24969D01*
X44236Y-24954D01*
X44266Y-24944D01*
X44297Y-24941D01*
X44327Y-24943D01*
X44357Y-24951D01*
X44385Y-24965D01*
X44410Y-24985D01*
X44430Y-25008D01*
X44446Y-25035D01*
X44456Y-25065D01*
X44459Y-25096D01*
X44460Y-25100D01*
X44460Y-26100D02*
X44456Y-26131D01*
X44447Y-26160D01*
X44433Y-26188D01*
X44413Y-26212D01*
X44389Y-26232D01*
X44362Y-26247D01*
X44332Y-26256D01*
X44301Y-26259D01*
X44271Y-26257D01*
X44241Y-26248D01*
X44213Y-26233D01*
X44189Y-26214D01*
X44168Y-26190D01*
X44153Y-26163D01*
X44144Y-26133D01*
X44141Y-26102D01*
X44143Y-26072D01*
X44152Y-26042D01*
X44166Y-26014D01*
X44185Y-25989D01*
X44209Y-25969D01*
X44236Y-25954D01*
X44266Y-25944D01*
X44297Y-25941D01*
X44327Y-25943D01*
X44357Y-25951D01*
X44385Y-25965D01*
X44410Y-25985D01*
X44430Y-26008D01*
X44446Y-26035D01*
X44456Y-26065D01*
X44459Y-26096D01*
X44460Y-26100D01*
X44460Y-27100D02*
X44456Y-27131D01*
X44447Y-27160D01*
X44433Y-27188D01*
X44413Y-27212D01*
X44389Y-27232D01*
X44362Y-27247D01*
X44332Y-27256D01*
X44301Y-27259D01*
X44271Y-27257D01*
X44241Y-27248D01*
X44213Y-27233D01*
X44189Y-27214D01*
X44168Y-27190D01*
X44153Y-27163D01*
X44144Y-27133D01*
X44141Y-27102D01*
X44143Y-27072D01*
X44152Y-27042D01*
X44166Y-27014D01*
X44185Y-26989D01*
X44209Y-26969D01*
X44236Y-26954D01*
X44266Y-26944D01*
X44297Y-26941D01*
X44327Y-26943D01*
X44357Y-26951D01*
X44385Y-26965D01*
X44410Y-26985D01*
X44430Y-27008D01*
X44446Y-27035D01*
X44456Y-27065D01*
X44459Y-27096D01*
X44460Y-27100D01*
X46460Y-20100D02*
X46456Y-20131D01*
X46447Y-20160D01*
X46433Y-20188D01*
X46413Y-20212D01*
X46389Y-20232D01*
X46362Y-20247D01*
X46332Y-20256D01*
X46301Y-20259D01*
X46271Y-20257D01*
X46241Y-20248D01*
X46213Y-20233D01*
X46189Y-20214D01*
X46168Y-20190D01*
X46153Y-20163D01*
X46144Y-20133D01*
X46141Y-20102D01*
X46143Y-20072D01*
X46152Y-20042D01*
X46166Y-20014D01*
X46185Y-19989D01*
X46209Y-19969D01*
X46236Y-19954D01*
X46266Y-19944D01*
X46297Y-19941D01*
X46327Y-19943D01*
X46357Y-19951D01*
X46385Y-19965D01*
X46410Y-19985D01*
X46430Y-20008D01*
X46446Y-20035D01*
X46456Y-20065D01*
X46459Y-20096D01*
X46460Y-20100D01*
X46460Y-23600D02*
X46456Y-23631D01*
X46447Y-23660D01*
X46433Y-23688D01*
X46413Y-23712D01*
X46389Y-23732D01*
X46362Y-23747D01*
X46332Y-23756D01*
X46301Y-23759D01*
X46271Y-23757D01*
X46241Y-23748D01*
X46213Y-23733D01*
X46189Y-23714D01*
X46168Y-23690D01*
X46153Y-23663D01*
X46144Y-23633D01*
X46141Y-23602D01*
X46143Y-23572D01*
X46152Y-23542D01*
X46166Y-23514D01*
X46185Y-23489D01*
X46209Y-23469D01*
X46236Y-23454D01*
X46266Y-23444D01*
X46297Y-23441D01*
X46327Y-23443D01*
X46357Y-23451D01*
X46385Y-23465D01*
X46410Y-23485D01*
X46430Y-23508D01*
X46446Y-23535D01*
X46456Y-23565D01*
X46459Y-23596D01*
X46460Y-23600D01*
X46460Y-27100D02*
X46456Y-27131D01*
X46447Y-27160D01*
X46433Y-27188D01*
X46413Y-27212D01*
X46389Y-27232D01*
X46362Y-27247D01*
X46332Y-27256D01*
X46301Y-27259D01*
X46271Y-27257D01*
X46241Y-27248D01*
X46213Y-27233D01*
X46189Y-27214D01*
X46168Y-27190D01*
X46153Y-27163D01*
X46144Y-27133D01*
X46141Y-27102D01*
X46143Y-27072D01*
X46152Y-27042D01*
X46166Y-27014D01*
X46185Y-26989D01*
X46209Y-26969D01*
X46236Y-26954D01*
X46266Y-26944D01*
X46297Y-26941D01*
X46327Y-26943D01*
X46357Y-26951D01*
X46385Y-26965D01*
X46410Y-26985D01*
X46430Y-27008D01*
X46446Y-27035D01*
X46456Y-27065D01*
X46459Y-27096D01*
X46460Y-27100D01*
X47460Y-20100D02*
X47456Y-20131D01*
X47447Y-20160D01*
X47433Y-20188D01*
X47413Y-20212D01*
X47389Y-20232D01*
X47362Y-20247D01*
X47332Y-20256D01*
X47301Y-20259D01*
X47271Y-20257D01*
X47241Y-20248D01*
X47213Y-20233D01*
X47189Y-20214D01*
X47168Y-20190D01*
X47153Y-20163D01*
X47144Y-20133D01*
X47141Y-20102D01*
X47143Y-20072D01*
X47152Y-20042D01*
X47166Y-20014D01*
X47185Y-19989D01*
X47209Y-19969D01*
X47236Y-19954D01*
X47266Y-19944D01*
X47297Y-19941D01*
X47327Y-19943D01*
X47357Y-19951D01*
X47385Y-19965D01*
X47410Y-19985D01*
X47430Y-20008D01*
X47446Y-20035D01*
X47456Y-20065D01*
X47459Y-20096D01*
X47460Y-20100D01*
X47460Y-27100D02*
X47456Y-27131D01*
X47447Y-27160D01*
X47433Y-27188D01*
X47413Y-27212D01*
X47389Y-27232D01*
X47362Y-27247D01*
X47332Y-27256D01*
X47301Y-27259D01*
X47271Y-27257D01*
X47241Y-27248D01*
X47213Y-27233D01*
X47189Y-27214D01*
X47168Y-27190D01*
X47153Y-27163D01*
X47144Y-27133D01*
X47141Y-27102D01*
X47143Y-27072D01*
X47152Y-27042D01*
X47166Y-27014D01*
X47185Y-26989D01*
X47209Y-26969D01*
X47236Y-26954D01*
X47266Y-26944D01*
X47297Y-26941D01*
X47327Y-26943D01*
X47357Y-26951D01*
X47385Y-26965D01*
X47410Y-26985D01*
X47430Y-27008D01*
X47446Y-27035D01*
X47456Y-27065D01*
X47459Y-27096D01*
X47460Y-27100D01*
X48460Y-20100D02*
X48456Y-20131D01*
X48447Y-20160D01*
X48433Y-20188D01*
X48413Y-20212D01*
X48389Y-20232D01*
X48362Y-20247D01*
X48332Y-20256D01*
X48301Y-20259D01*
X48271Y-20257D01*
X48241Y-20248D01*
X48213Y-20233D01*
X48189Y-20214D01*
X48168Y-20190D01*
X48153Y-20163D01*
X48144Y-20133D01*
X48141Y-20102D01*
X48143Y-20072D01*
X48152Y-20042D01*
X48166Y-20014D01*
X48185Y-19989D01*
X48209Y-19969D01*
X48236Y-19954D01*
X48266Y-19944D01*
X48297Y-19941D01*
X48327Y-19943D01*
X48357Y-19951D01*
X48385Y-19965D01*
X48410Y-19985D01*
X48430Y-20008D01*
X48446Y-20035D01*
X48456Y-20065D01*
X48459Y-20096D01*
X48460Y-20100D01*
X48460Y-27100D02*
X48456Y-27131D01*
X48447Y-27160D01*
X48433Y-27188D01*
X48413Y-27212D01*
X48389Y-27232D01*
X48362Y-27247D01*
X48332Y-27256D01*
X48301Y-27259D01*
X48271Y-27257D01*
X48241Y-27248D01*
X48213Y-27233D01*
X48189Y-27214D01*
X48168Y-27190D01*
X48153Y-27163D01*
X48144Y-27133D01*
X48141Y-27102D01*
X48143Y-27072D01*
X48152Y-27042D01*
X48166Y-27014D01*
X48185Y-26989D01*
X48209Y-26969D01*
X48236Y-26954D01*
X48266Y-26944D01*
X48297Y-26941D01*
X48327Y-26943D01*
X48357Y-26951D01*
X48385Y-26965D01*
X48410Y-26985D01*
X48430Y-27008D01*
X48446Y-27035D01*
X48456Y-27065D01*
X48459Y-27096D01*
X48460Y-27100D01*
X49460Y-20100D02*
X49456Y-20131D01*
X49447Y-20160D01*
X49433Y-20188D01*
X49413Y-20212D01*
X49389Y-20232D01*
X49362Y-20247D01*
X49332Y-20256D01*
X49301Y-20259D01*
X49271Y-20257D01*
X49241Y-20248D01*
X49213Y-20233D01*
X49189Y-20214D01*
X49168Y-20190D01*
X49153Y-20163D01*
X49144Y-20133D01*
X49141Y-20102D01*
X49143Y-20072D01*
X49152Y-20042D01*
X49166Y-20014D01*
X49185Y-19989D01*
X49209Y-19969D01*
X49236Y-19954D01*
X49266Y-19944D01*
X49297Y-19941D01*
X49327Y-19943D01*
X49357Y-19951D01*
X49385Y-19965D01*
X49410Y-19985D01*
X49430Y-20008D01*
X49446Y-20035D01*
X49456Y-20065D01*
X49459Y-20096D01*
X49460Y-20100D01*
X49460Y-27100D02*
X49456Y-27131D01*
X49447Y-27160D01*
X49433Y-27188D01*
X49413Y-27212D01*
X49389Y-27232D01*
X49362Y-27247D01*
X49332Y-27256D01*
X49301Y-27259D01*
X49271Y-27257D01*
X49241Y-27248D01*
X49213Y-27233D01*
X49189Y-27214D01*
X49168Y-27190D01*
X49153Y-27163D01*
X49144Y-27133D01*
X49141Y-27102D01*
X49143Y-27072D01*
X49152Y-27042D01*
X49166Y-27014D01*
X49185Y-26989D01*
X49209Y-26969D01*
X49236Y-26954D01*
X49266Y-26944D01*
X49297Y-26941D01*
X49327Y-26943D01*
X49357Y-26951D01*
X49385Y-26965D01*
X49410Y-26985D01*
X49430Y-27008D01*
X49446Y-27035D01*
X49456Y-27065D01*
X49459Y-27096D01*
X49460Y-27100D01*
X50460Y-20100D02*
X50456Y-20131D01*
X50447Y-20160D01*
X50433Y-20188D01*
X50413Y-20212D01*
X50389Y-20232D01*
X50362Y-20247D01*
X50332Y-20256D01*
X50301Y-20259D01*
X50271Y-20257D01*
X50241Y-20248D01*
X50213Y-20233D01*
X50189Y-20214D01*
X50168Y-20190D01*
X50153Y-20163D01*
X50144Y-20133D01*
X50141Y-20102D01*
X50143Y-20072D01*
X50152Y-20042D01*
X50166Y-20014D01*
X50185Y-19989D01*
X50209Y-19969D01*
X50236Y-19954D01*
X50266Y-19944D01*
X50297Y-19941D01*
X50327Y-19943D01*
X50357Y-19951D01*
X50385Y-19965D01*
X50410Y-19985D01*
X50430Y-20008D01*
X50446Y-20035D01*
X50456Y-20065D01*
X50459Y-20096D01*
X50460Y-20100D01*
X50460Y-27100D02*
X50456Y-27131D01*
X50447Y-27160D01*
X50433Y-27188D01*
X50413Y-27212D01*
X50389Y-27232D01*
X50362Y-27247D01*
X50332Y-27256D01*
X50301Y-27259D01*
X50271Y-27257D01*
X50241Y-27248D01*
X50213Y-27233D01*
X50189Y-27214D01*
X50168Y-27190D01*
X50153Y-27163D01*
X50144Y-27133D01*
X50141Y-27102D01*
X50143Y-27072D01*
X50152Y-27042D01*
X50166Y-27014D01*
X50185Y-26989D01*
X50209Y-26969D01*
X50236Y-26954D01*
X50266Y-26944D01*
X50297Y-26941D01*
X50327Y-26943D01*
X50357Y-26951D01*
X50385Y-26965D01*
X50410Y-26985D01*
X50430Y-27008D01*
X50446Y-27035D01*
X50456Y-27065D01*
X50459Y-27096D01*
X50460Y-27100D01*
X51460Y-20100D02*
X51456Y-20131D01*
X51447Y-20160D01*
X51433Y-20188D01*
X51413Y-20212D01*
X51389Y-20232D01*
X51362Y-20247D01*
X51332Y-20256D01*
X51301Y-20259D01*
X51271Y-20257D01*
X51241Y-20248D01*
X51213Y-20233D01*
X51189Y-20214D01*
X51168Y-20190D01*
X51153Y-20163D01*
X51144Y-20133D01*
X51141Y-20102D01*
X51143Y-20072D01*
X51152Y-20042D01*
X51166Y-20014D01*
X51185Y-19989D01*
X51209Y-19969D01*
X51236Y-19954D01*
X51266Y-19944D01*
X51297Y-19941D01*
X51327Y-19943D01*
X51357Y-19951D01*
X51385Y-19965D01*
X51410Y-19985D01*
X51430Y-20008D01*
X51446Y-20035D01*
X51456Y-20065D01*
X51459Y-20096D01*
X51460Y-20100D01*
X51460Y-27100D02*
X51456Y-27131D01*
X51447Y-27160D01*
X51433Y-27188D01*
X51413Y-27212D01*
X51389Y-27232D01*
X51362Y-27247D01*
X51332Y-27256D01*
X51301Y-27259D01*
X51271Y-27257D01*
X51241Y-27248D01*
X51213Y-27233D01*
X51189Y-27214D01*
X51168Y-27190D01*
X51153Y-27163D01*
X51144Y-27133D01*
X51141Y-27102D01*
X51143Y-27072D01*
X51152Y-27042D01*
X51166Y-27014D01*
X51185Y-26989D01*
X51209Y-26969D01*
X51236Y-26954D01*
X51266Y-26944D01*
X51297Y-26941D01*
X51327Y-26943D01*
X51357Y-26951D01*
X51385Y-26965D01*
X51410Y-26985D01*
X51430Y-27008D01*
X51446Y-27035D01*
X51456Y-27065D01*
X51459Y-27096D01*
X51460Y-27100D01*
X52260Y-22600D02*
X52256Y-22631D01*
X52247Y-22660D01*
X52233Y-22688D01*
X52213Y-22712D01*
X52189Y-22732D01*
X52162Y-22747D01*
X52132Y-22756D01*
X52101Y-22759D01*
X52071Y-22757D01*
X52041Y-22748D01*
X52013Y-22733D01*
X51989Y-22714D01*
X51968Y-22690D01*
X51953Y-22663D01*
X51944Y-22633D01*
X51941Y-22602D01*
X51943Y-22572D01*
X51952Y-22542D01*
X51966Y-22514D01*
X51985Y-22489D01*
X52009Y-22469D01*
X52036Y-22454D01*
X52066Y-22444D01*
X52097Y-22441D01*
X52127Y-22443D01*
X52157Y-22451D01*
X52185Y-22465D01*
X52210Y-22485D01*
X52230Y-22508D01*
X52246Y-22535D01*
X52256Y-22565D01*
X52259Y-22596D01*
X52260Y-22600D01*
X52260Y-24600D02*
X52256Y-24631D01*
X52247Y-24660D01*
X52233Y-24688D01*
X52213Y-24712D01*
X52189Y-24732D01*
X52162Y-24747D01*
X52132Y-24756D01*
X52101Y-24759D01*
X52071Y-24757D01*
X52041Y-24748D01*
X52013Y-24733D01*
X51989Y-24714D01*
X51968Y-24690D01*
X51953Y-24663D01*
X51944Y-24633D01*
X51941Y-24602D01*
X51943Y-24572D01*
X51952Y-24542D01*
X51966Y-24514D01*
X51985Y-24489D01*
X52009Y-24469D01*
X52036Y-24454D01*
X52066Y-24444D01*
X52097Y-24441D01*
X52127Y-24443D01*
X52157Y-24451D01*
X52185Y-24465D01*
X52210Y-24485D01*
X52230Y-24508D01*
X52246Y-24535D01*
X52256Y-24565D01*
X52259Y-24596D01*
X52260Y-24600D01*
X52460Y-20100D02*
X52456Y-20131D01*
X52447Y-20160D01*
X52433Y-20188D01*
X52413Y-20212D01*
X52389Y-20232D01*
X52362Y-20247D01*
X52332Y-20256D01*
X52301Y-20259D01*
X52271Y-20257D01*
X52241Y-20248D01*
X52213Y-20233D01*
X52189Y-20214D01*
X52168Y-20190D01*
X52153Y-20163D01*
X52144Y-20133D01*
X52141Y-20102D01*
X52143Y-20072D01*
X52152Y-20042D01*
X52166Y-20014D01*
X52185Y-19989D01*
X52209Y-19969D01*
X52236Y-19954D01*
X52266Y-19944D01*
X52297Y-19941D01*
X52327Y-19943D01*
X52357Y-19951D01*
X52385Y-19965D01*
X52410Y-19985D01*
X52430Y-20008D01*
X52446Y-20035D01*
X52456Y-20065D01*
X52459Y-20096D01*
X52460Y-20100D01*
X52460Y-27100D02*
X52456Y-27131D01*
X52447Y-27160D01*
X52433Y-27188D01*
X52413Y-27212D01*
X52389Y-27232D01*
X52362Y-27247D01*
X52332Y-27256D01*
X52301Y-27259D01*
X52271Y-27257D01*
X52241Y-27248D01*
X52213Y-27233D01*
X52189Y-27214D01*
X52168Y-27190D01*
X52153Y-27163D01*
X52144Y-27133D01*
X52141Y-27102D01*
X52143Y-27072D01*
X52152Y-27042D01*
X52166Y-27014D01*
X52185Y-26989D01*
X52209Y-26969D01*
X52236Y-26954D01*
X52266Y-26944D01*
X52297Y-26941D01*
X52327Y-26943D01*
X52357Y-26951D01*
X52385Y-26965D01*
X52410Y-26985D01*
X52430Y-27008D01*
X52446Y-27035D01*
X52456Y-27065D01*
X52459Y-27096D01*
X52460Y-27100D01*
X53260Y-23600D02*
X53256Y-23631D01*
X53247Y-23660D01*
X53233Y-23688D01*
X53213Y-23712D01*
X53189Y-23732D01*
X53162Y-23747D01*
X53132Y-23756D01*
X53101Y-23759D01*
X53071Y-23757D01*
X53041Y-23748D01*
X53013Y-23733D01*
X52989Y-23714D01*
X52968Y-23690D01*
X52953Y-23663D01*
X52944Y-23633D01*
X52941Y-23602D01*
X52943Y-23572D01*
X52952Y-23542D01*
X52966Y-23514D01*
X52985Y-23489D01*
X53009Y-23469D01*
X53036Y-23454D01*
X53066Y-23444D01*
X53097Y-23441D01*
X53127Y-23443D01*
X53157Y-23451D01*
X53185Y-23465D01*
X53210Y-23485D01*
X53230Y-23508D01*
X53246Y-23535D01*
X53256Y-23565D01*
X53259Y-23596D01*
X53260Y-23600D01*
X53460Y-20100D02*
X53456Y-20131D01*
X53447Y-20160D01*
X53433Y-20188D01*
X53413Y-20212D01*
X53389Y-20232D01*
X53362Y-20247D01*
X53332Y-20256D01*
X53301Y-20259D01*
X53271Y-20257D01*
X53241Y-20248D01*
X53213Y-20233D01*
X53189Y-20214D01*
X53168Y-20190D01*
X53153Y-20163D01*
X53144Y-20133D01*
X53141Y-20102D01*
X53143Y-20072D01*
X53152Y-20042D01*
X53166Y-20014D01*
X53185Y-19989D01*
X53209Y-19969D01*
X53236Y-19954D01*
X53266Y-19944D01*
X53297Y-19941D01*
X53327Y-19943D01*
X53357Y-19951D01*
X53385Y-19965D01*
X53410Y-19985D01*
X53430Y-20008D01*
X53446Y-20035D01*
X53456Y-20065D01*
X53459Y-20096D01*
X53460Y-20100D01*
X53460Y-27100D02*
X53456Y-27131D01*
X53447Y-27160D01*
X53433Y-27188D01*
X53413Y-27212D01*
X53389Y-27232D01*
X53362Y-27247D01*
X53332Y-27256D01*
X53301Y-27259D01*
X53271Y-27257D01*
X53241Y-27248D01*
X53213Y-27233D01*
X53189Y-27214D01*
X53168Y-27190D01*
X53153Y-27163D01*
X53144Y-27133D01*
X53141Y-27102D01*
X53143Y-27072D01*
X53152Y-27042D01*
X53166Y-27014D01*
X53185Y-26989D01*
X53209Y-26969D01*
X53236Y-26954D01*
X53266Y-26944D01*
X53297Y-26941D01*
X53327Y-26943D01*
X53357Y-26951D01*
X53385Y-26965D01*
X53410Y-26985D01*
X53430Y-27008D01*
X53446Y-27035D01*
X53456Y-27065D01*
X53459Y-27096D01*
X53460Y-27100D01*
G54D12*
X36719Y-31080D02*
X36719Y-30280D01*
X36910Y-30280D01*
X37024Y-30318D01*
X37100Y-30394D01*
X37139Y-30470D01*
X37177Y-30623D01*
X37177Y-30737D01*
X37139Y-30889D01*
X37100Y-30966D01*
X37024Y-31042D01*
X36910Y-31080D01*
X36719Y-31080D01*
X37519Y-31080D02*
X37519Y-30546D01*
X37519Y-30699D02*
X37558Y-30623D01*
X37596Y-30585D01*
X37672Y-30546D01*
X37748Y-30546D01*
X38014Y-31080D02*
X38014Y-30546D01*
X38014Y-30280D02*
X37976Y-30318D01*
X38014Y-30356D01*
X38053Y-30318D01*
X38014Y-30280D01*
X38014Y-30356D01*
X38510Y-31080D02*
X38434Y-31042D01*
X38395Y-30966D01*
X38395Y-30280D01*
X38929Y-31080D02*
X38853Y-31042D01*
X38814Y-30966D01*
X38814Y-30280D01*
X39843Y-31080D02*
X39843Y-30280D01*
X40110Y-30851D01*
X40377Y-30280D01*
X40377Y-31080D01*
X41100Y-31080D02*
X41100Y-30661D01*
X41062Y-30585D01*
X40986Y-30546D01*
X40834Y-30546D01*
X40757Y-30585D01*
X41100Y-31042D02*
X41024Y-31080D01*
X40834Y-31080D01*
X40757Y-31042D01*
X40719Y-30966D01*
X40719Y-30889D01*
X40757Y-30813D01*
X40834Y-30775D01*
X41024Y-30775D01*
X41100Y-30737D01*
X41481Y-30546D02*
X41481Y-31346D01*
X41481Y-30585D02*
X41558Y-30546D01*
X41710Y-30546D01*
X41786Y-30585D01*
X41824Y-30623D01*
X41862Y-30699D01*
X41862Y-30927D01*
X41824Y-31004D01*
X41786Y-31042D01*
X41710Y-31080D01*
X41558Y-31080D01*
X41481Y-31042D01*
X42205Y-31004D02*
X42244Y-31042D01*
X42205Y-31080D01*
X42167Y-31042D01*
X42205Y-31004D01*
X42205Y-31080D01*
X42205Y-30585D02*
X42244Y-30623D01*
X42205Y-30661D01*
X42167Y-30623D01*
X42205Y-30585D01*
X42205Y-30661D01*
X36079Y-32311D02*
X36329Y-32561D01*
X36329Y-32311D02*
X36079Y-32561D01*
X36872Y-31960D02*
X36948Y-31960D01*
X37024Y-31998D01*
X37062Y-32036D01*
X37100Y-32112D01*
X37139Y-32265D01*
X37139Y-32455D01*
X37100Y-32607D01*
X37062Y-32684D01*
X37024Y-32722D01*
X36948Y-32760D01*
X36872Y-32760D01*
X36796Y-32722D01*
X36758Y-32684D01*
X36719Y-32607D01*
X36681Y-32455D01*
X36681Y-32265D01*
X36719Y-32112D01*
X36758Y-32036D01*
X36796Y-31998D01*
X36872Y-31960D01*
X37481Y-32684D02*
X37520Y-32722D01*
X37481Y-32760D01*
X37443Y-32722D01*
X37481Y-32684D01*
X37481Y-32760D01*
X38015Y-31960D02*
X38091Y-31960D01*
X38167Y-31998D01*
X38205Y-32036D01*
X38243Y-32112D01*
X38282Y-32265D01*
X38282Y-32455D01*
X38243Y-32607D01*
X38205Y-32684D01*
X38167Y-32722D01*
X38091Y-32760D01*
X38015Y-32760D01*
X37939Y-32722D01*
X37901Y-32684D01*
X37862Y-32607D01*
X37824Y-32455D01*
X37824Y-32265D01*
X37862Y-32112D01*
X37901Y-32036D01*
X37939Y-31998D01*
X38015Y-31960D01*
X38586Y-32036D02*
X38624Y-31998D01*
X38701Y-31960D01*
X38891Y-31960D01*
X38967Y-31998D01*
X39005Y-32036D01*
X39044Y-32112D01*
X39044Y-32188D01*
X39005Y-32303D01*
X38548Y-32760D01*
X39044Y-32760D01*
X39767Y-31960D02*
X39386Y-31960D01*
X39348Y-32341D01*
X39386Y-32303D01*
X39463Y-32265D01*
X39653Y-32265D01*
X39729Y-32303D01*
X39767Y-32341D01*
X39806Y-32417D01*
X39806Y-32607D01*
X39767Y-32684D01*
X39729Y-32722D01*
X39653Y-32760D01*
X39463Y-32760D01*
X39386Y-32722D01*
X39348Y-32684D01*
X40110Y-31960D02*
X40110Y-32112D01*
X40415Y-31960D02*
X40415Y-32112D01*
X41940Y-31922D02*
X41254Y-32950D01*
X42969Y-31960D02*
X43045Y-31960D01*
X43121Y-31998D01*
X43159Y-32036D01*
X43197Y-32112D01*
X43236Y-32265D01*
X43236Y-32455D01*
X43197Y-32607D01*
X43159Y-32684D01*
X43121Y-32722D01*
X43045Y-32760D01*
X42969Y-32760D01*
X42893Y-32722D01*
X42855Y-32684D01*
X42816Y-32607D01*
X42778Y-32455D01*
X42778Y-32265D01*
X42816Y-32112D01*
X42855Y-32036D01*
X42893Y-31998D01*
X42969Y-31960D01*
X43578Y-32684D02*
X43617Y-32722D01*
X43578Y-32760D01*
X43540Y-32722D01*
X43578Y-32684D01*
X43578Y-32760D01*
X44302Y-31960D02*
X44150Y-31960D01*
X44074Y-31998D01*
X44036Y-32036D01*
X43959Y-32150D01*
X43921Y-32303D01*
X43921Y-32607D01*
X43959Y-32684D01*
X43998Y-32722D01*
X44074Y-32760D01*
X44226Y-32760D01*
X44302Y-32722D01*
X44340Y-32684D01*
X44379Y-32607D01*
X44379Y-32417D01*
X44340Y-32341D01*
X44302Y-32303D01*
X44226Y-32265D01*
X44074Y-32265D01*
X43998Y-32303D01*
X43959Y-32341D01*
X43921Y-32417D01*
X45064Y-32226D02*
X45064Y-32760D01*
X44874Y-31922D02*
X44683Y-32493D01*
X45179Y-32493D01*
X45483Y-32760D02*
X45483Y-32226D01*
X45483Y-32303D02*
X45522Y-32265D01*
X45598Y-32226D01*
X45712Y-32226D01*
X45788Y-32265D01*
X45826Y-32341D01*
X45826Y-32760D01*
X45826Y-32341D02*
X45864Y-32265D01*
X45941Y-32226D01*
X46055Y-32226D01*
X46131Y-32265D01*
X46169Y-32341D01*
X46169Y-32760D01*
X46550Y-32760D02*
X46550Y-32226D01*
X46550Y-32303D02*
X46589Y-32265D01*
X46665Y-32226D01*
X46779Y-32226D01*
X46855Y-32265D01*
X46893Y-32341D01*
X46893Y-32760D01*
X46893Y-32341D02*
X46931Y-32265D01*
X47008Y-32226D01*
X47122Y-32226D01*
X47198Y-32265D01*
X47236Y-32341D01*
X47236Y-32760D01*
X48456Y-33065D02*
X48418Y-33026D01*
X48342Y-32912D01*
X48304Y-32836D01*
X48266Y-32722D01*
X48227Y-32531D01*
X48227Y-32379D01*
X48266Y-32188D01*
X48304Y-32074D01*
X48342Y-31998D01*
X48418Y-31884D01*
X48456Y-31846D01*
X49180Y-32760D02*
X48722Y-32760D01*
X48951Y-32760D02*
X48951Y-31960D01*
X48875Y-32074D01*
X48799Y-32150D01*
X48722Y-32188D01*
X50132Y-32760D02*
X50132Y-31960D01*
X50475Y-32760D02*
X50475Y-32341D01*
X50437Y-32265D01*
X50361Y-32226D01*
X50247Y-32226D01*
X50171Y-32265D01*
X50132Y-32303D01*
X50971Y-32760D02*
X50895Y-32722D01*
X50856Y-32684D01*
X50818Y-32607D01*
X50818Y-32379D01*
X50856Y-32303D01*
X50895Y-32265D01*
X50971Y-32226D01*
X51085Y-32226D01*
X51161Y-32265D01*
X51199Y-32303D01*
X51237Y-32379D01*
X51237Y-32607D01*
X51199Y-32684D01*
X51161Y-32722D01*
X51085Y-32760D01*
X50971Y-32760D01*
X51695Y-32760D02*
X51619Y-32722D01*
X51580Y-32646D01*
X51580Y-31960D01*
X52304Y-32722D02*
X52228Y-32760D01*
X52076Y-32760D01*
X51999Y-32722D01*
X51961Y-32646D01*
X51961Y-32341D01*
X51999Y-32265D01*
X52076Y-32226D01*
X52228Y-32226D01*
X52304Y-32265D01*
X52342Y-32341D01*
X52342Y-32417D01*
X51961Y-32493D01*
X52609Y-33065D02*
X52647Y-33026D01*
X52724Y-32912D01*
X52762Y-32836D01*
X52800Y-32722D01*
X52838Y-32531D01*
X52838Y-32379D01*
X52800Y-32188D01*
X52762Y-32074D01*
X52724Y-31998D01*
X52647Y-31884D01*
X52609Y-31846D01*
G54D10*
X36329Y-33491D02*
X36325Y-33522D01*
X36316Y-33551D01*
X36302Y-33579D01*
X36282Y-33603D01*
X36258Y-33623D01*
X36231Y-33638D01*
X36201Y-33647D01*
X36170Y-33650D01*
X36140Y-33648D01*
X36110Y-33639D01*
X36082Y-33624D01*
X36058Y-33605D01*
X36037Y-33581D01*
X36022Y-33554D01*
X36013Y-33524D01*
X36010Y-33493D01*
X36012Y-33463D01*
X36021Y-33433D01*
X36035Y-33405D01*
X36054Y-33380D01*
X36078Y-33360D01*
X36105Y-33345D01*
X36135Y-33335D01*
X36166Y-33332D01*
X36196Y-33334D01*
X36226Y-33342D01*
X36254Y-33356D01*
X36279Y-33376D01*
X36299Y-33399D01*
X36315Y-33426D01*
X36325Y-33456D01*
X36328Y-33487D01*
X36329Y-33491D01*
G54D12*
X36872Y-33015D02*
X36948Y-33015D01*
X37024Y-33053D01*
X37062Y-33091D01*
X37100Y-33167D01*
X37139Y-33320D01*
X37139Y-33510D01*
X37100Y-33662D01*
X37062Y-33739D01*
X37024Y-33777D01*
X36948Y-33815D01*
X36872Y-33815D01*
X36796Y-33777D01*
X36758Y-33739D01*
X36719Y-33662D01*
X36681Y-33510D01*
X36681Y-33320D01*
X36719Y-33167D01*
X36758Y-33091D01*
X36796Y-33053D01*
X36872Y-33015D01*
X37481Y-33739D02*
X37520Y-33777D01*
X37481Y-33815D01*
X37443Y-33777D01*
X37481Y-33739D01*
X37481Y-33815D01*
X38015Y-33015D02*
X38091Y-33015D01*
X38167Y-33053D01*
X38205Y-33091D01*
X38243Y-33167D01*
X38282Y-33320D01*
X38282Y-33510D01*
X38243Y-33662D01*
X38205Y-33739D01*
X38167Y-33777D01*
X38091Y-33815D01*
X38015Y-33815D01*
X37939Y-33777D01*
X37901Y-33739D01*
X37862Y-33662D01*
X37824Y-33510D01*
X37824Y-33320D01*
X37862Y-33167D01*
X37901Y-33091D01*
X37939Y-33053D01*
X38015Y-33015D01*
X38548Y-33015D02*
X39044Y-33015D01*
X38777Y-33320D01*
X38891Y-33320D01*
X38967Y-33358D01*
X39005Y-33396D01*
X39044Y-33472D01*
X39044Y-33662D01*
X39005Y-33739D01*
X38967Y-33777D01*
X38891Y-33815D01*
X38663Y-33815D01*
X38586Y-33777D01*
X38548Y-33739D01*
X39348Y-33091D02*
X39386Y-33053D01*
X39463Y-33015D01*
X39653Y-33015D01*
X39729Y-33053D01*
X39767Y-33091D01*
X39806Y-33167D01*
X39806Y-33243D01*
X39767Y-33358D01*
X39310Y-33815D01*
X39806Y-33815D01*
X40110Y-33015D02*
X40110Y-33167D01*
X40415Y-33015D02*
X40415Y-33167D01*
X41940Y-32977D02*
X41254Y-34005D01*
X42969Y-33015D02*
X43045Y-33015D01*
X43121Y-33053D01*
X43159Y-33091D01*
X43197Y-33167D01*
X43236Y-33320D01*
X43236Y-33510D01*
X43197Y-33662D01*
X43159Y-33739D01*
X43121Y-33777D01*
X43045Y-33815D01*
X42969Y-33815D01*
X42893Y-33777D01*
X42855Y-33739D01*
X42816Y-33662D01*
X42778Y-33510D01*
X42778Y-33320D01*
X42816Y-33167D01*
X42855Y-33091D01*
X42893Y-33053D01*
X42969Y-33015D01*
X43578Y-33739D02*
X43617Y-33777D01*
X43578Y-33815D01*
X43540Y-33777D01*
X43578Y-33739D01*
X43578Y-33815D01*
X44074Y-33358D02*
X43998Y-33320D01*
X43959Y-33281D01*
X43921Y-33205D01*
X43921Y-33167D01*
X43959Y-33091D01*
X43998Y-33053D01*
X44074Y-33015D01*
X44226Y-33015D01*
X44302Y-33053D01*
X44340Y-33091D01*
X44379Y-33167D01*
X44379Y-33205D01*
X44340Y-33281D01*
X44302Y-33320D01*
X44226Y-33358D01*
X44074Y-33358D01*
X43998Y-33396D01*
X43959Y-33434D01*
X43921Y-33510D01*
X43921Y-33662D01*
X43959Y-33739D01*
X43998Y-33777D01*
X44074Y-33815D01*
X44226Y-33815D01*
X44302Y-33777D01*
X44340Y-33739D01*
X44379Y-33662D01*
X44379Y-33510D01*
X44340Y-33434D01*
X44302Y-33396D01*
X44226Y-33358D01*
X45141Y-33815D02*
X44683Y-33815D01*
X44912Y-33815D02*
X44912Y-33015D01*
X44836Y-33129D01*
X44760Y-33205D01*
X44683Y-33243D01*
X45483Y-33815D02*
X45483Y-33281D01*
X45483Y-33358D02*
X45522Y-33320D01*
X45598Y-33281D01*
X45712Y-33281D01*
X45788Y-33320D01*
X45826Y-33396D01*
X45826Y-33815D01*
X45826Y-33396D02*
X45864Y-33320D01*
X45941Y-33281D01*
X46055Y-33281D01*
X46131Y-33320D01*
X46169Y-33396D01*
X46169Y-33815D01*
X46550Y-33815D02*
X46550Y-33281D01*
X46550Y-33358D02*
X46589Y-33320D01*
X46665Y-33281D01*
X46779Y-33281D01*
X46855Y-33320D01*
X46893Y-33396D01*
X46893Y-33815D01*
X46893Y-33396D02*
X46931Y-33320D01*
X47008Y-33281D01*
X47122Y-33281D01*
X47198Y-33320D01*
X47236Y-33396D01*
X47236Y-33815D01*
X48456Y-34120D02*
X48418Y-34081D01*
X48342Y-33967D01*
X48304Y-33891D01*
X48266Y-33777D01*
X48227Y-33586D01*
X48227Y-33434D01*
X48266Y-33243D01*
X48304Y-33129D01*
X48342Y-33053D01*
X48418Y-32939D01*
X48456Y-32901D01*
X48684Y-33015D02*
X49180Y-33015D01*
X48913Y-33320D01*
X49027Y-33320D01*
X49103Y-33358D01*
X49141Y-33396D01*
X49180Y-33472D01*
X49180Y-33662D01*
X49141Y-33739D01*
X49103Y-33777D01*
X49027Y-33815D01*
X48799Y-33815D01*
X48722Y-33777D01*
X48684Y-33739D01*
X49865Y-33015D02*
X49713Y-33015D01*
X49637Y-33053D01*
X49599Y-33091D01*
X49522Y-33205D01*
X49484Y-33358D01*
X49484Y-33662D01*
X49522Y-33739D01*
X49561Y-33777D01*
X49637Y-33815D01*
X49789Y-33815D01*
X49865Y-33777D01*
X49903Y-33739D01*
X49942Y-33662D01*
X49942Y-33472D01*
X49903Y-33396D01*
X49865Y-33358D01*
X49789Y-33320D01*
X49637Y-33320D01*
X49561Y-33358D01*
X49522Y-33396D01*
X49484Y-33472D01*
X50894Y-33815D02*
X50894Y-33015D01*
X51237Y-33815D02*
X51237Y-33396D01*
X51199Y-33320D01*
X51123Y-33281D01*
X51009Y-33281D01*
X50933Y-33320D01*
X50894Y-33358D01*
X51733Y-33815D02*
X51657Y-33777D01*
X51618Y-33739D01*
X51580Y-33662D01*
X51580Y-33434D01*
X51618Y-33358D01*
X51657Y-33320D01*
X51733Y-33281D01*
X51847Y-33281D01*
X51923Y-33320D01*
X51961Y-33358D01*
X51999Y-33434D01*
X51999Y-33662D01*
X51961Y-33739D01*
X51923Y-33777D01*
X51847Y-33815D01*
X51733Y-33815D01*
X52457Y-33815D02*
X52381Y-33777D01*
X52342Y-33701D01*
X52342Y-33015D01*
X53066Y-33777D02*
X52990Y-33815D01*
X52838Y-33815D01*
X52761Y-33777D01*
X52723Y-33701D01*
X52723Y-33396D01*
X52761Y-33320D01*
X52838Y-33281D01*
X52990Y-33281D01*
X53066Y-33320D01*
X53104Y-33396D01*
X53104Y-33472D01*
X52723Y-33548D01*
X53409Y-33777D02*
X53486Y-33815D01*
X53638Y-33815D01*
X53714Y-33777D01*
X53752Y-33701D01*
X53752Y-33662D01*
X53714Y-33586D01*
X53638Y-33548D01*
X53524Y-33548D01*
X53447Y-33510D01*
X53409Y-33434D01*
X53409Y-33396D01*
X53447Y-33320D01*
X53524Y-33281D01*
X53638Y-33281D01*
X53714Y-33320D01*
X54019Y-34120D02*
X54057Y-34081D01*
X54134Y-33967D01*
X54172Y-33891D01*
X54210Y-33777D01*
X54248Y-33586D01*
X54248Y-33434D01*
X54210Y-33243D01*
X54172Y-33129D01*
X54134Y-33053D01*
X54057Y-32939D01*
X54019Y-32901D01*
M02*
