G04 (created by PCBNEW-RS274X (2011-07-08)-stable) date Wed 05 Oct 2011 12:27:17 PM CEST*
G01*
G70*
G90*
%MOIN*%
G04 Gerber Fmt 3.4, Leading zero omitted, Abs format*
%FSLAX34Y34*%
G04 APERTURE LIST*
%ADD10C,0.006000*%
%ADD11C,0.012000*%
%ADD12C,0.015000*%
%ADD13C,0.000100*%
%ADD14C,0.060000*%
%ADD15R,0.055000X0.055000*%
%ADD16C,0.055000*%
G04 APERTURE END LIST*
G54D10*
G54D11*
X50577Y-25547D02*
X51127Y-25547D01*
X50735Y-25364D01*
X51127Y-25180D01*
X50577Y-25180D01*
X50865Y-24735D02*
X50839Y-24656D01*
X50813Y-24630D01*
X50761Y-24604D01*
X50682Y-24604D01*
X50630Y-24630D01*
X50604Y-24656D01*
X50577Y-24709D01*
X50577Y-24918D01*
X51127Y-24918D01*
X51127Y-24735D01*
X51101Y-24682D01*
X51075Y-24656D01*
X51023Y-24630D01*
X50970Y-24630D01*
X50918Y-24656D01*
X50892Y-24682D01*
X50865Y-24735D01*
X50865Y-24918D01*
X50577Y-24368D02*
X51127Y-24368D01*
X51127Y-23844D02*
X51127Y-24106D01*
X50865Y-24132D01*
X50892Y-24106D01*
X50918Y-24054D01*
X50918Y-23923D01*
X50892Y-23870D01*
X50865Y-23844D01*
X50813Y-23818D01*
X50682Y-23818D01*
X50630Y-23844D01*
X50604Y-23870D01*
X50577Y-23923D01*
X50577Y-24054D01*
X50604Y-24106D01*
X50630Y-24132D01*
X50577Y-23294D02*
X50577Y-23608D01*
X50577Y-23451D02*
X51127Y-23451D01*
X51049Y-23503D01*
X50996Y-23556D01*
X50970Y-23608D01*
X51127Y-22822D02*
X51127Y-22927D01*
X51101Y-22979D01*
X51075Y-23006D01*
X50996Y-23058D01*
X50892Y-23084D01*
X50682Y-23084D01*
X50630Y-23058D01*
X50604Y-23032D01*
X50577Y-22979D01*
X50577Y-22875D01*
X50604Y-22822D01*
X50630Y-22796D01*
X50682Y-22770D01*
X50813Y-22770D01*
X50865Y-22796D01*
X50892Y-22822D01*
X50918Y-22875D01*
X50918Y-22979D01*
X50892Y-23032D01*
X50865Y-23058D01*
X50813Y-23084D01*
X50892Y-22455D02*
X50918Y-22508D01*
X50944Y-22534D01*
X50996Y-22560D01*
X51023Y-22560D01*
X51075Y-22534D01*
X51101Y-22508D01*
X51127Y-22455D01*
X51127Y-22351D01*
X51101Y-22298D01*
X51075Y-22272D01*
X51023Y-22246D01*
X50996Y-22246D01*
X50944Y-22272D01*
X50918Y-22298D01*
X50892Y-22351D01*
X50892Y-22455D01*
X50865Y-22508D01*
X50839Y-22534D01*
X50787Y-22560D01*
X50682Y-22560D01*
X50630Y-22534D01*
X50604Y-22508D01*
X50577Y-22455D01*
X50577Y-22351D01*
X50604Y-22298D01*
X50630Y-22272D01*
X50682Y-22246D01*
X50787Y-22246D01*
X50839Y-22272D01*
X50865Y-22298D01*
X50892Y-22351D01*
X49687Y-26450D02*
X50237Y-26450D01*
X50028Y-26450D02*
X50054Y-26398D01*
X50054Y-26293D01*
X50028Y-26241D01*
X50002Y-26214D01*
X49949Y-26188D01*
X49792Y-26188D01*
X49740Y-26214D01*
X49714Y-26241D01*
X49687Y-26293D01*
X49687Y-26398D01*
X49714Y-26450D01*
X49687Y-25952D02*
X50054Y-25952D01*
X49949Y-25952D02*
X50002Y-25926D01*
X50028Y-25900D01*
X50054Y-25847D01*
X50054Y-25795D01*
X49714Y-25403D02*
X49687Y-25455D01*
X49687Y-25560D01*
X49714Y-25612D01*
X49766Y-25638D01*
X49975Y-25638D01*
X50028Y-25612D01*
X50054Y-25560D01*
X50054Y-25455D01*
X50028Y-25403D01*
X49975Y-25376D01*
X49923Y-25376D01*
X49871Y-25638D01*
X49687Y-24905D02*
X49975Y-24905D01*
X50028Y-24932D01*
X50054Y-24984D01*
X50054Y-25089D01*
X50028Y-25141D01*
X49714Y-24905D02*
X49687Y-24958D01*
X49687Y-25089D01*
X49714Y-25141D01*
X49766Y-25167D01*
X49818Y-25167D01*
X49871Y-25141D01*
X49897Y-25089D01*
X49897Y-24958D01*
X49923Y-24905D01*
X49687Y-24643D02*
X50237Y-24643D01*
X49897Y-24591D02*
X49687Y-24434D01*
X50054Y-24434D02*
X49845Y-24643D01*
X49687Y-24119D02*
X49714Y-24172D01*
X49740Y-24198D01*
X49792Y-24224D01*
X49949Y-24224D01*
X50002Y-24198D01*
X50028Y-24172D01*
X50054Y-24119D01*
X50054Y-24041D01*
X50028Y-23989D01*
X50002Y-23962D01*
X49949Y-23936D01*
X49792Y-23936D01*
X49740Y-23962D01*
X49714Y-23989D01*
X49687Y-24041D01*
X49687Y-24119D01*
X50054Y-23464D02*
X49687Y-23464D01*
X50054Y-23700D02*
X49766Y-23700D01*
X49714Y-23674D01*
X49687Y-23621D01*
X49687Y-23543D01*
X49714Y-23491D01*
X49740Y-23464D01*
X50054Y-23281D02*
X50054Y-23071D01*
X50237Y-23202D02*
X49766Y-23202D01*
X49714Y-23176D01*
X49687Y-23123D01*
X49687Y-23071D01*
X50237Y-22548D02*
X49687Y-22364D01*
X50237Y-22181D01*
X50237Y-21893D02*
X50237Y-21841D01*
X50211Y-21789D01*
X50185Y-21762D01*
X50133Y-21736D01*
X50028Y-21710D01*
X49897Y-21710D01*
X49792Y-21736D01*
X49740Y-21762D01*
X49714Y-21789D01*
X49687Y-21841D01*
X49687Y-21893D01*
X49714Y-21946D01*
X49740Y-21972D01*
X49792Y-21998D01*
X49897Y-22024D01*
X50028Y-22024D01*
X50133Y-21998D01*
X50185Y-21972D01*
X50211Y-21946D01*
X50237Y-21893D01*
X49740Y-21474D02*
X49714Y-21448D01*
X49687Y-21474D01*
X49714Y-21500D01*
X49740Y-21474D01*
X49687Y-21474D01*
X49687Y-20924D02*
X49687Y-21238D01*
X49687Y-21081D02*
X50237Y-21081D01*
X50159Y-21133D01*
X50106Y-21186D01*
X50080Y-21238D01*
X42675Y-29506D02*
X42701Y-29480D01*
X42727Y-29428D01*
X42727Y-29297D01*
X42701Y-29244D01*
X42675Y-29218D01*
X42623Y-29192D01*
X42570Y-29192D01*
X42492Y-29218D01*
X42177Y-29532D01*
X42177Y-29192D01*
X42727Y-28851D02*
X42727Y-28799D01*
X42701Y-28747D01*
X42675Y-28720D01*
X42623Y-28694D01*
X42518Y-28668D01*
X42387Y-28668D01*
X42282Y-28694D01*
X42230Y-28720D01*
X42204Y-28747D01*
X42177Y-28799D01*
X42177Y-28851D01*
X42204Y-28904D01*
X42230Y-28930D01*
X42282Y-28956D01*
X42387Y-28982D01*
X42518Y-28982D01*
X42623Y-28956D01*
X42675Y-28930D01*
X42701Y-28904D01*
X42727Y-28851D01*
X42177Y-28144D02*
X42177Y-28458D01*
X42177Y-28301D02*
X42727Y-28301D01*
X42649Y-28353D01*
X42596Y-28406D01*
X42570Y-28458D01*
X42177Y-27620D02*
X42177Y-27934D01*
X42177Y-27777D02*
X42727Y-27777D01*
X42649Y-27829D01*
X42596Y-27882D01*
X42570Y-27934D01*
X42387Y-26965D02*
X42387Y-26546D01*
X42177Y-25865D02*
X42727Y-25865D01*
X42518Y-25865D02*
X42544Y-25813D01*
X42544Y-25708D01*
X42518Y-25656D01*
X42492Y-25629D01*
X42439Y-25603D01*
X42282Y-25603D01*
X42230Y-25629D01*
X42204Y-25656D01*
X42177Y-25708D01*
X42177Y-25813D01*
X42204Y-25865D01*
X42177Y-25288D02*
X42204Y-25341D01*
X42256Y-25367D01*
X42727Y-25367D01*
X42177Y-25000D02*
X42204Y-25053D01*
X42230Y-25079D01*
X42282Y-25105D01*
X42439Y-25105D01*
X42492Y-25079D01*
X42518Y-25053D01*
X42544Y-25000D01*
X42544Y-24922D01*
X42518Y-24870D01*
X42492Y-24843D01*
X42439Y-24817D01*
X42282Y-24817D01*
X42230Y-24843D01*
X42204Y-24870D01*
X42177Y-24922D01*
X42177Y-25000D01*
X42544Y-24345D02*
X42099Y-24345D01*
X42046Y-24372D01*
X42020Y-24398D01*
X41994Y-24450D01*
X41994Y-24529D01*
X42020Y-24581D01*
X42204Y-24345D02*
X42177Y-24398D01*
X42177Y-24502D01*
X42204Y-24555D01*
X42230Y-24581D01*
X42282Y-24607D01*
X42439Y-24607D01*
X42492Y-24581D01*
X42518Y-24555D01*
X42544Y-24502D01*
X42544Y-24398D01*
X42518Y-24345D01*
X42230Y-24083D02*
X42204Y-24057D01*
X42177Y-24083D01*
X42204Y-24109D01*
X42230Y-24083D01*
X42177Y-24083D01*
X42204Y-23847D02*
X42177Y-23795D01*
X42177Y-23690D01*
X42204Y-23638D01*
X42256Y-23612D01*
X42282Y-23612D01*
X42335Y-23638D01*
X42361Y-23690D01*
X42361Y-23769D01*
X42387Y-23821D01*
X42439Y-23847D01*
X42465Y-23847D01*
X42518Y-23821D01*
X42544Y-23769D01*
X42544Y-23690D01*
X42518Y-23638D01*
X42544Y-23376D02*
X41994Y-23376D01*
X42518Y-23376D02*
X42544Y-23324D01*
X42544Y-23219D01*
X42518Y-23167D01*
X42492Y-23140D01*
X42439Y-23114D01*
X42282Y-23114D01*
X42230Y-23140D01*
X42204Y-23167D01*
X42177Y-23219D01*
X42177Y-23324D01*
X42204Y-23376D01*
X42177Y-22878D02*
X42544Y-22878D01*
X42727Y-22878D02*
X42701Y-22904D01*
X42675Y-22878D01*
X42701Y-22852D01*
X42727Y-22878D01*
X42675Y-22878D01*
X42544Y-22695D02*
X42544Y-22485D01*
X42727Y-22616D02*
X42256Y-22616D01*
X42204Y-22590D01*
X42177Y-22537D01*
X42177Y-22485D01*
X42544Y-22354D02*
X42544Y-22066D01*
X42177Y-22354D01*
X42177Y-22066D01*
X42204Y-21648D02*
X42177Y-21700D01*
X42177Y-21805D01*
X42204Y-21857D01*
X42256Y-21883D01*
X42465Y-21883D01*
X42518Y-21857D01*
X42544Y-21805D01*
X42544Y-21700D01*
X42518Y-21648D01*
X42465Y-21621D01*
X42413Y-21621D01*
X42361Y-21883D01*
X42544Y-21386D02*
X42177Y-21386D01*
X42492Y-21386D02*
X42518Y-21360D01*
X42544Y-21307D01*
X42544Y-21229D01*
X42518Y-21177D01*
X42465Y-21150D01*
X42177Y-21150D01*
X42544Y-20888D02*
X41994Y-20888D01*
X42518Y-20888D02*
X42544Y-20836D01*
X42544Y-20731D01*
X42518Y-20679D01*
X42492Y-20652D01*
X42439Y-20626D01*
X42282Y-20626D01*
X42230Y-20652D01*
X42204Y-20679D01*
X42177Y-20731D01*
X42177Y-20836D01*
X42204Y-20888D01*
X42544Y-20469D02*
X42544Y-20259D01*
X42177Y-20390D02*
X42649Y-20390D01*
X42701Y-20364D01*
X42727Y-20311D01*
X42727Y-20259D01*
X42204Y-19867D02*
X42177Y-19919D01*
X42177Y-20024D01*
X42204Y-20076D01*
X42256Y-20102D01*
X42465Y-20102D01*
X42518Y-20076D01*
X42544Y-20024D01*
X42544Y-19919D01*
X42518Y-19867D01*
X42465Y-19840D01*
X42413Y-19840D01*
X42361Y-20102D01*
X42177Y-19605D02*
X42544Y-19605D01*
X42727Y-19605D02*
X42701Y-19631D01*
X42675Y-19605D01*
X42701Y-19579D01*
X42727Y-19605D01*
X42675Y-19605D01*
X42177Y-19264D02*
X42204Y-19317D01*
X42256Y-19343D01*
X42727Y-19343D01*
X42230Y-19055D02*
X42204Y-19029D01*
X42177Y-19055D01*
X42204Y-19081D01*
X42230Y-19055D01*
X42177Y-19055D01*
X42177Y-18714D02*
X42204Y-18767D01*
X42230Y-18793D01*
X42282Y-18819D01*
X42439Y-18819D01*
X42492Y-18793D01*
X42518Y-18767D01*
X42544Y-18714D01*
X42544Y-18636D01*
X42518Y-18584D01*
X42492Y-18557D01*
X42439Y-18531D01*
X42282Y-18531D01*
X42230Y-18557D01*
X42204Y-18584D01*
X42177Y-18636D01*
X42177Y-18714D01*
X42177Y-18295D02*
X42544Y-18295D01*
X42439Y-18295D02*
X42492Y-18269D01*
X42518Y-18243D01*
X42544Y-18190D01*
X42544Y-18138D01*
X42544Y-17719D02*
X42099Y-17719D01*
X42046Y-17746D01*
X42020Y-17772D01*
X41994Y-17824D01*
X41994Y-17903D01*
X42020Y-17955D01*
X42204Y-17719D02*
X42177Y-17772D01*
X42177Y-17876D01*
X42204Y-17929D01*
X42230Y-17955D01*
X42282Y-17981D01*
X42439Y-17981D01*
X42492Y-17955D01*
X42518Y-17929D01*
X42544Y-17876D01*
X42544Y-17772D01*
X42518Y-17719D01*
G54D12*
X54100Y-17400D02*
X41700Y-17400D01*
X54100Y-29800D02*
X54100Y-17400D01*
X41700Y-29800D02*
X54100Y-29800D01*
X41700Y-17400D02*
X41700Y-29800D01*
G54D13*
G36*
X45916Y-24636D02*
X45922Y-24648D01*
X45938Y-24673D01*
X45962Y-24710D01*
X45991Y-24753D01*
X46021Y-24797D01*
X46045Y-24832D01*
X46061Y-24857D01*
X46066Y-24868D01*
X46064Y-24873D01*
X46054Y-24894D01*
X46039Y-24924D01*
X46030Y-24941D01*
X46018Y-24969D01*
X46016Y-24982D01*
X46019Y-24985D01*
X46040Y-24995D01*
X46076Y-25010D01*
X46124Y-25031D01*
X46179Y-25055D01*
X46239Y-25080D01*
X46300Y-25106D01*
X46359Y-25130D01*
X46411Y-25151D01*
X46454Y-25168D01*
X46483Y-25180D01*
X46496Y-25184D01*
X46499Y-25183D01*
X46512Y-25169D01*
X46530Y-25145D01*
X46572Y-25093D01*
X46636Y-25042D01*
X46709Y-25011D01*
X46789Y-25000D01*
X46864Y-25009D01*
X46936Y-25039D01*
X47000Y-25089D01*
X47048Y-25149D01*
X47079Y-25220D01*
X47088Y-25300D01*
X47080Y-25376D01*
X47051Y-25449D01*
X47002Y-25514D01*
X46970Y-25541D01*
X46905Y-25579D01*
X46835Y-25600D01*
X46817Y-25603D01*
X46740Y-25599D01*
X46667Y-25577D01*
X46601Y-25536D01*
X46547Y-25480D01*
X46541Y-25473D01*
X46522Y-25446D01*
X46508Y-25429D01*
X46497Y-25415D01*
X46261Y-25513D01*
X46224Y-25529D01*
X46159Y-25556D01*
X46104Y-25579D01*
X46060Y-25598D01*
X46030Y-25611D01*
X46018Y-25617D01*
X46018Y-25618D01*
X46016Y-25626D01*
X46023Y-25644D01*
X46039Y-25677D01*
X46050Y-25699D01*
X46062Y-25724D01*
X46066Y-25735D01*
X46061Y-25745D01*
X46046Y-25769D01*
X46022Y-25804D01*
X45993Y-25846D01*
X45966Y-25886D01*
X45942Y-25923D01*
X45925Y-25950D01*
X45918Y-25963D01*
X45918Y-25965D01*
X45924Y-25977D01*
X45942Y-25998D01*
X45972Y-26030D01*
X46017Y-26076D01*
X46024Y-26083D01*
X46062Y-26120D01*
X46094Y-26150D01*
X46116Y-26171D01*
X46127Y-26178D01*
X46127Y-26178D01*
X46140Y-26171D01*
X46166Y-26154D01*
X46204Y-26130D01*
X46248Y-26100D01*
X46361Y-26022D01*
X46468Y-26065D01*
X46501Y-26078D01*
X46541Y-26095D01*
X46569Y-26107D01*
X46582Y-26113D01*
X46586Y-26125D01*
X46593Y-26154D01*
X46602Y-26197D01*
X46611Y-26248D01*
X46620Y-26296D01*
X46628Y-26339D01*
X46634Y-26371D01*
X46637Y-26385D01*
X46639Y-26389D01*
X46646Y-26391D01*
X46661Y-26393D01*
X46687Y-26394D01*
X46729Y-26395D01*
X46789Y-26395D01*
X46796Y-26395D01*
X46854Y-26394D01*
X46899Y-26393D01*
X46929Y-26392D01*
X46941Y-26390D01*
X46941Y-26390D01*
X46944Y-26376D01*
X46951Y-26345D01*
X46959Y-26302D01*
X46969Y-26250D01*
X46970Y-26246D01*
X46980Y-26195D01*
X46989Y-26151D01*
X46996Y-26121D01*
X47000Y-26108D01*
X47004Y-26105D01*
X47024Y-26095D01*
X47056Y-26080D01*
X47095Y-26063D01*
X47136Y-26046D01*
X47172Y-26031D01*
X47200Y-26021D01*
X47212Y-26018D01*
X47212Y-26019D01*
X47225Y-26026D01*
X47252Y-26044D01*
X47289Y-26069D01*
X47333Y-26100D01*
X47336Y-26102D01*
X47380Y-26132D01*
X47417Y-26156D01*
X47444Y-26172D01*
X47456Y-26178D01*
X47456Y-26178D01*
X47469Y-26168D01*
X47494Y-26146D01*
X47528Y-26114D01*
X47566Y-26075D01*
X47578Y-26063D01*
X47620Y-26021D01*
X47647Y-25991D01*
X47662Y-25973D01*
X47665Y-25964D01*
X47665Y-25963D01*
X47657Y-25950D01*
X47639Y-25923D01*
X47613Y-25885D01*
X47583Y-25841D01*
X47581Y-25838D01*
X47551Y-25794D01*
X47526Y-25757D01*
X47509Y-25731D01*
X47502Y-25720D01*
X47502Y-25718D01*
X47508Y-25700D01*
X47519Y-25669D01*
X47533Y-25631D01*
X47550Y-25590D01*
X47565Y-25554D01*
X47578Y-25526D01*
X47585Y-25513D01*
X47586Y-25513D01*
X47601Y-25508D01*
X47634Y-25500D01*
X47679Y-25491D01*
X47733Y-25481D01*
X47742Y-25479D01*
X47794Y-25469D01*
X47837Y-25461D01*
X47867Y-25455D01*
X47879Y-25452D01*
X47881Y-25444D01*
X47883Y-25419D01*
X47884Y-25380D01*
X47884Y-25333D01*
X47884Y-25284D01*
X47883Y-25235D01*
X47881Y-25194D01*
X47879Y-25164D01*
X47877Y-25152D01*
X47876Y-25152D01*
X47860Y-25147D01*
X47827Y-25140D01*
X47782Y-25131D01*
X47728Y-25120D01*
X47718Y-25118D01*
X47666Y-25109D01*
X47624Y-25100D01*
X47594Y-25094D01*
X47583Y-25090D01*
X47580Y-25086D01*
X47571Y-25064D01*
X47556Y-25029D01*
X47539Y-24986D01*
X47498Y-24886D01*
X47583Y-24763D01*
X47590Y-24751D01*
X47620Y-24707D01*
X47645Y-24671D01*
X47661Y-24646D01*
X47667Y-24635D01*
X47666Y-24634D01*
X47656Y-24622D01*
X47633Y-24598D01*
X47600Y-24564D01*
X47562Y-24526D01*
X47533Y-24497D01*
X47499Y-24463D01*
X47476Y-24442D01*
X47461Y-24430D01*
X47452Y-24426D01*
X47446Y-24427D01*
X47433Y-24435D01*
X47406Y-24453D01*
X47369Y-24478D01*
X47325Y-24508D01*
X47289Y-24533D01*
X47248Y-24559D01*
X47218Y-24577D01*
X47204Y-24583D01*
X47198Y-24581D01*
X47174Y-24573D01*
X47137Y-24558D01*
X47094Y-24540D01*
X46997Y-24497D01*
X46984Y-24433D01*
X46977Y-24394D01*
X46967Y-24340D01*
X46957Y-24289D01*
X46941Y-24208D01*
X46645Y-24205D01*
X46639Y-24217D01*
X46636Y-24229D01*
X46629Y-24259D01*
X46621Y-24302D01*
X46611Y-24352D01*
X46603Y-24395D01*
X46595Y-24439D01*
X46589Y-24470D01*
X46586Y-24484D01*
X46582Y-24487D01*
X46561Y-24498D01*
X46527Y-24513D01*
X46487Y-24530D01*
X46446Y-24548D01*
X46407Y-24563D01*
X46378Y-24574D01*
X46363Y-24578D01*
X46352Y-24572D01*
X46326Y-24555D01*
X46290Y-24531D01*
X46247Y-24502D01*
X46204Y-24473D01*
X46167Y-24448D01*
X46141Y-24431D01*
X46129Y-24423D01*
X46120Y-24427D01*
X46100Y-24444D01*
X46066Y-24477D01*
X46018Y-24525D01*
X46011Y-24533D01*
X45974Y-24571D01*
X45944Y-24604D01*
X45924Y-24626D01*
X45916Y-24636D01*
X45916Y-24636D01*
G37*
G36*
X45917Y-22324D02*
X45921Y-22352D01*
X45930Y-22379D01*
X45936Y-22390D01*
X45952Y-22414D01*
X45973Y-22433D01*
X45997Y-22447D01*
X46022Y-22457D01*
X46050Y-22461D01*
X46077Y-22460D01*
X46105Y-22453D01*
X46131Y-22441D01*
X46143Y-22433D01*
X46156Y-22421D01*
X46168Y-22408D01*
X46177Y-22396D01*
X46179Y-22392D01*
X46190Y-22368D01*
X46196Y-22343D01*
X46197Y-22315D01*
X46197Y-22306D01*
X46195Y-22290D01*
X46191Y-22276D01*
X46185Y-22262D01*
X46176Y-22246D01*
X46158Y-22223D01*
X46136Y-22204D01*
X46110Y-22190D01*
X46098Y-22186D01*
X46084Y-22183D01*
X46073Y-22181D01*
X46072Y-22181D01*
X46071Y-22180D01*
X46077Y-22179D01*
X46078Y-22179D01*
X46096Y-22175D01*
X46115Y-22168D01*
X46131Y-22160D01*
X46152Y-22144D01*
X46171Y-22123D01*
X46186Y-22098D01*
X46195Y-22070D01*
X46198Y-22041D01*
X46198Y-22033D01*
X46195Y-22011D01*
X46189Y-21990D01*
X46187Y-21985D01*
X46174Y-21962D01*
X46157Y-21941D01*
X46136Y-21923D01*
X46112Y-21910D01*
X46087Y-21903D01*
X46086Y-21902D01*
X46079Y-21901D01*
X46076Y-21900D01*
X46076Y-21900D01*
X46080Y-21899D01*
X46087Y-21897D01*
X46090Y-21897D01*
X46114Y-21889D01*
X46138Y-21875D01*
X46159Y-21857D01*
X46173Y-21840D01*
X46187Y-21816D01*
X46195Y-21789D01*
X46198Y-21759D01*
X46196Y-21738D01*
X46189Y-21710D01*
X46177Y-21685D01*
X46159Y-21662D01*
X46136Y-21644D01*
X46133Y-21642D01*
X46123Y-21635D01*
X46114Y-21631D01*
X46107Y-21629D01*
X46095Y-21625D01*
X46083Y-21622D01*
X46073Y-21620D01*
X46072Y-21620D01*
X46072Y-21620D01*
X46078Y-21619D01*
X46093Y-21615D01*
X46112Y-21608D01*
X46129Y-21600D01*
X46152Y-21583D01*
X46171Y-21562D01*
X46186Y-21537D01*
X46195Y-21509D01*
X46198Y-21480D01*
X46196Y-21454D01*
X46188Y-21426D01*
X46175Y-21401D01*
X46155Y-21379D01*
X46143Y-21368D01*
X46127Y-21357D01*
X46110Y-21349D01*
X46095Y-21344D01*
X46067Y-21339D01*
X46039Y-21340D01*
X46013Y-21346D01*
X45989Y-21357D01*
X45967Y-21372D01*
X45948Y-21391D01*
X45933Y-21414D01*
X45923Y-21440D01*
X45918Y-21468D01*
X45918Y-21471D01*
X45919Y-21500D01*
X45925Y-21526D01*
X45938Y-21552D01*
X45944Y-21561D01*
X45960Y-21580D01*
X45980Y-21596D01*
X46001Y-21608D01*
X46009Y-21611D01*
X46021Y-21615D01*
X46033Y-21618D01*
X46043Y-21619D01*
X46048Y-21619D01*
X46043Y-21620D01*
X46039Y-21621D01*
X46026Y-21623D01*
X46012Y-21627D01*
X46000Y-21632D01*
X45987Y-21638D01*
X45964Y-21656D01*
X45945Y-21677D01*
X45930Y-21702D01*
X45920Y-21730D01*
X45919Y-21735D01*
X45918Y-21754D01*
X45918Y-21774D01*
X45921Y-21793D01*
X45927Y-21811D01*
X45941Y-21838D01*
X45960Y-21861D01*
X45961Y-21862D01*
X45982Y-21878D01*
X46005Y-21890D01*
X46029Y-21898D01*
X46030Y-21898D01*
X46037Y-21899D01*
X46039Y-21900D01*
X46037Y-21901D01*
X46031Y-21902D01*
X46029Y-21902D01*
X46015Y-21906D01*
X45999Y-21912D01*
X45984Y-21920D01*
X45967Y-21933D01*
X45947Y-21954D01*
X45931Y-21979D01*
X45921Y-22007D01*
X45920Y-22012D01*
X45918Y-22031D01*
X45918Y-22051D01*
X45920Y-22069D01*
X45925Y-22085D01*
X45937Y-22111D01*
X45954Y-22134D01*
X45975Y-22154D01*
X46000Y-22168D01*
X46008Y-22171D01*
X46021Y-22175D01*
X46033Y-22178D01*
X46043Y-22180D01*
X46044Y-22180D01*
X46044Y-22180D01*
X46039Y-22181D01*
X46038Y-22181D01*
X46020Y-22186D01*
X46001Y-22193D01*
X45985Y-22201D01*
X45979Y-22205D01*
X45958Y-22223D01*
X45940Y-22245D01*
X45927Y-22269D01*
X45920Y-22296D01*
X45917Y-22324D01*
X45917Y-22324D01*
G37*
G36*
X46198Y-21189D02*
X46199Y-21206D01*
X46200Y-21223D01*
X46205Y-21241D01*
X46217Y-21268D01*
X46233Y-21291D01*
X46254Y-21311D01*
X46279Y-21325D01*
X46305Y-21335D01*
X46334Y-21339D01*
X46362Y-21337D01*
X46389Y-21329D01*
X46414Y-21317D01*
X46437Y-21299D01*
X46455Y-21276D01*
X46460Y-21269D01*
X46472Y-21242D01*
X46479Y-21214D01*
X46479Y-21185D01*
X46473Y-21156D01*
X46463Y-21133D01*
X46447Y-21109D01*
X46426Y-21088D01*
X46401Y-21072D01*
X46373Y-21062D01*
X46359Y-21059D01*
X46341Y-21058D01*
X46323Y-21059D01*
X46308Y-21061D01*
X46302Y-21062D01*
X46274Y-21073D01*
X46249Y-21090D01*
X46229Y-21111D01*
X46212Y-21137D01*
X46207Y-21149D01*
X46202Y-21165D01*
X46199Y-21180D01*
X46198Y-21189D01*
X46198Y-21189D01*
G37*
G36*
X46198Y-22605D02*
X46202Y-22634D01*
X46212Y-22662D01*
X46228Y-22688D01*
X46232Y-22693D01*
X46252Y-22713D01*
X46277Y-22728D01*
X46304Y-22738D01*
X46319Y-22741D01*
X46337Y-22742D01*
X46355Y-22741D01*
X46370Y-22739D01*
X46376Y-22737D01*
X46404Y-22726D01*
X46428Y-22710D01*
X46448Y-22690D01*
X46464Y-22666D01*
X46474Y-22639D01*
X46479Y-22609D01*
X46479Y-22599D01*
X46476Y-22570D01*
X46467Y-22544D01*
X46453Y-22520D01*
X46435Y-22500D01*
X46413Y-22483D01*
X46389Y-22471D01*
X46362Y-22463D01*
X46332Y-22462D01*
X46315Y-22463D01*
X46300Y-22467D01*
X46283Y-22473D01*
X46262Y-22484D01*
X46240Y-22502D01*
X46222Y-22524D01*
X46208Y-22549D01*
X46200Y-22576D01*
X46198Y-22605D01*
X46198Y-22605D01*
G37*
G36*
X46480Y-20910D02*
X46480Y-20929D01*
X46482Y-20947D01*
X46488Y-20967D01*
X46501Y-20993D01*
X46520Y-21016D01*
X46538Y-21031D01*
X46562Y-21046D01*
X46589Y-21055D01*
X46601Y-21057D01*
X46617Y-21058D01*
X46634Y-21057D01*
X46649Y-21055D01*
X46657Y-21053D01*
X46685Y-21042D01*
X46709Y-21026D01*
X46730Y-21005D01*
X46745Y-20979D01*
X46750Y-20970D01*
X46756Y-20952D01*
X46759Y-20934D01*
X46759Y-20912D01*
X46758Y-20899D01*
X46756Y-20884D01*
X46752Y-20870D01*
X46745Y-20855D01*
X46741Y-20846D01*
X46723Y-20822D01*
X46701Y-20803D01*
X46676Y-20788D01*
X46647Y-20779D01*
X46641Y-20778D01*
X46624Y-20777D01*
X46607Y-20778D01*
X46592Y-20779D01*
X46582Y-20782D01*
X46554Y-20793D01*
X46530Y-20809D01*
X46510Y-20829D01*
X46494Y-20854D01*
X46483Y-20883D01*
X46482Y-20891D01*
X46480Y-20910D01*
X46480Y-20910D01*
G37*
G36*
X46479Y-22036D02*
X46481Y-22065D01*
X46489Y-22091D01*
X46496Y-22107D01*
X46513Y-22131D01*
X46534Y-22151D01*
X46558Y-22166D01*
X46586Y-22176D01*
X46591Y-22177D01*
X46614Y-22181D01*
X46636Y-22180D01*
X46660Y-22174D01*
X46688Y-22163D01*
X46711Y-22146D01*
X46731Y-22125D01*
X46746Y-22100D01*
X46756Y-22072D01*
X46761Y-22054D01*
X46762Y-22063D01*
X46762Y-22066D01*
X46768Y-22086D01*
X46777Y-22107D01*
X46790Y-22126D01*
X46792Y-22129D01*
X46813Y-22150D01*
X46836Y-22165D01*
X46862Y-22175D01*
X46890Y-22180D01*
X46917Y-22179D01*
X46945Y-22173D01*
X46971Y-22161D01*
X46972Y-22160D01*
X46995Y-22143D01*
X47014Y-22122D01*
X47027Y-22098D01*
X47036Y-22072D01*
X47040Y-22045D01*
X47038Y-22018D01*
X47031Y-21992D01*
X47019Y-21966D01*
X47002Y-21943D01*
X46988Y-21931D01*
X46968Y-21917D01*
X46946Y-21907D01*
X46925Y-21902D01*
X46920Y-21901D01*
X46917Y-21900D01*
X46919Y-21899D01*
X46925Y-21898D01*
X46944Y-21894D01*
X46964Y-21885D01*
X46983Y-21873D01*
X46992Y-21866D01*
X47011Y-21845D01*
X47026Y-21821D01*
X47036Y-21794D01*
X47040Y-21765D01*
X47038Y-21736D01*
X47034Y-21719D01*
X47022Y-21692D01*
X47006Y-21669D01*
X46985Y-21649D01*
X46961Y-21634D01*
X46933Y-21624D01*
X46919Y-21621D01*
X46891Y-21620D01*
X46863Y-21625D01*
X46836Y-21635D01*
X46813Y-21651D01*
X46792Y-21671D01*
X46776Y-21696D01*
X46771Y-21707D01*
X46766Y-21720D01*
X46763Y-21732D01*
X46761Y-21741D01*
X46761Y-21742D01*
X46760Y-21742D01*
X46759Y-21736D01*
X46755Y-21722D01*
X46748Y-21703D01*
X46740Y-21687D01*
X46734Y-21678D01*
X46717Y-21660D01*
X46697Y-21643D01*
X46676Y-21631D01*
X46653Y-21624D01*
X46628Y-21620D01*
X46603Y-21620D01*
X46598Y-21621D01*
X46569Y-21629D01*
X46544Y-21642D01*
X46520Y-21661D01*
X46507Y-21677D01*
X46491Y-21702D01*
X46482Y-21730D01*
X46481Y-21741D01*
X46480Y-21756D01*
X46481Y-21772D01*
X46482Y-21787D01*
X46484Y-21798D01*
X46487Y-21807D01*
X46501Y-21835D01*
X46519Y-21858D01*
X46542Y-21877D01*
X46553Y-21884D01*
X46572Y-21892D01*
X46590Y-21898D01*
X46592Y-21898D01*
X46598Y-21899D01*
X46601Y-21900D01*
X46601Y-21900D01*
X46638Y-21900D01*
X46638Y-21900D01*
X46642Y-21899D01*
X46649Y-21898D01*
X46651Y-21897D01*
X46676Y-21889D01*
X46699Y-21875D01*
X46720Y-21857D01*
X46738Y-21836D01*
X46750Y-21812D01*
X46751Y-21811D01*
X46755Y-21798D01*
X46758Y-21787D01*
X46760Y-21774D01*
X46762Y-21786D01*
X46766Y-21803D01*
X46778Y-21828D01*
X46794Y-21851D01*
X46814Y-21870D01*
X46836Y-21885D01*
X46848Y-21891D01*
X46863Y-21896D01*
X46875Y-21898D01*
X46880Y-21899D01*
X46883Y-21900D01*
X46881Y-21901D01*
X46875Y-21902D01*
X46864Y-21904D01*
X46850Y-21909D01*
X46836Y-21915D01*
X46822Y-21923D01*
X46801Y-21941D01*
X46783Y-21963D01*
X46770Y-21988D01*
X46762Y-22014D01*
X46760Y-22027D01*
X46758Y-22014D01*
X46757Y-22012D01*
X46754Y-22000D01*
X46750Y-21988D01*
X46749Y-21985D01*
X46736Y-21962D01*
X46719Y-21941D01*
X46697Y-21923D01*
X46674Y-21910D01*
X46649Y-21903D01*
X46648Y-21902D01*
X46641Y-21901D01*
X46638Y-21900D01*
X46601Y-21900D01*
X46601Y-21900D01*
X46598Y-21901D01*
X46590Y-21902D01*
X46572Y-21907D01*
X46547Y-21919D01*
X46525Y-21936D01*
X46506Y-21957D01*
X46492Y-21982D01*
X46492Y-21982D01*
X46483Y-22008D01*
X46479Y-22036D01*
X46479Y-22036D01*
G37*
G36*
X46480Y-22872D02*
X46480Y-22895D01*
X46483Y-22916D01*
X46487Y-22929D01*
X46500Y-22956D01*
X46517Y-22979D01*
X46538Y-22997D01*
X46563Y-23011D01*
X46590Y-23020D01*
X46620Y-23023D01*
X46631Y-23023D01*
X46660Y-23017D01*
X46687Y-23006D01*
X46712Y-22989D01*
X46718Y-22984D01*
X46734Y-22964D01*
X46748Y-22940D01*
X46756Y-22915D01*
X46756Y-22915D01*
X46759Y-22894D01*
X46759Y-22871D01*
X46756Y-22850D01*
X46754Y-22842D01*
X46743Y-22816D01*
X46727Y-22792D01*
X46708Y-22773D01*
X46685Y-22758D01*
X46659Y-22748D01*
X46632Y-22743D01*
X46604Y-22743D01*
X46575Y-22749D01*
X46554Y-22759D01*
X46530Y-22775D01*
X46509Y-22796D01*
X46494Y-22820D01*
X46484Y-22847D01*
X46483Y-22851D01*
X46480Y-22872D01*
X46480Y-22872D01*
G37*
G36*
X47321Y-21484D02*
X47324Y-21511D01*
X47334Y-21538D01*
X47340Y-21551D01*
X47349Y-21564D01*
X47361Y-21577D01*
X47377Y-21591D01*
X47400Y-21606D01*
X47428Y-21616D01*
X47435Y-21617D01*
X47454Y-21619D01*
X47474Y-21619D01*
X47491Y-21617D01*
X47514Y-21609D01*
X47539Y-21596D01*
X47560Y-21579D01*
X47563Y-21576D01*
X47573Y-21563D01*
X47583Y-21548D01*
X47591Y-21534D01*
X47593Y-21529D01*
X47596Y-21518D01*
X47599Y-21506D01*
X47601Y-21498D01*
X47601Y-21493D01*
X47602Y-21498D01*
X47604Y-21505D01*
X47606Y-21514D01*
X47609Y-21524D01*
X47619Y-21545D01*
X47632Y-21566D01*
X47647Y-21583D01*
X47650Y-21585D01*
X47674Y-21602D01*
X47701Y-21614D01*
X47729Y-21619D01*
X47757Y-21619D01*
X47764Y-21618D01*
X47793Y-21610D01*
X47818Y-21597D01*
X47841Y-21578D01*
X47856Y-21561D01*
X47871Y-21537D01*
X47880Y-21509D01*
X47881Y-21504D01*
X47882Y-21485D01*
X47882Y-21465D01*
X47879Y-21447D01*
X47874Y-21431D01*
X47862Y-21405D01*
X47844Y-21383D01*
X47823Y-21364D01*
X47799Y-21350D01*
X47772Y-21342D01*
X47768Y-21341D01*
X47762Y-21339D01*
X47759Y-21338D01*
X47762Y-21337D01*
X47768Y-21337D01*
X47780Y-21334D01*
X47792Y-21329D01*
X47804Y-21324D01*
X47812Y-21320D01*
X47836Y-21303D01*
X47856Y-21281D01*
X47870Y-21257D01*
X47879Y-21229D01*
X47882Y-21199D01*
X47881Y-21176D01*
X47874Y-21149D01*
X47862Y-21124D01*
X47852Y-21110D01*
X47831Y-21090D01*
X47808Y-21074D01*
X47782Y-21063D01*
X47754Y-21058D01*
X47726Y-21059D01*
X47700Y-21065D01*
X47673Y-21076D01*
X47649Y-21093D01*
X47630Y-21114D01*
X47615Y-21140D01*
X47605Y-21169D01*
X47601Y-21184D01*
X47600Y-21175D01*
X47599Y-21169D01*
X47592Y-21147D01*
X47581Y-21125D01*
X47566Y-21104D01*
X47548Y-21088D01*
X47534Y-21078D01*
X47514Y-21068D01*
X47496Y-21062D01*
X47481Y-21059D01*
X47463Y-21058D01*
X47445Y-21059D01*
X47430Y-21061D01*
X47414Y-21066D01*
X47387Y-21079D01*
X47364Y-21097D01*
X47345Y-21119D01*
X47331Y-21145D01*
X47323Y-21175D01*
X47322Y-21182D01*
X47321Y-21199D01*
X47322Y-21217D01*
X47325Y-21233D01*
X47329Y-21245D01*
X47341Y-21271D01*
X47359Y-21294D01*
X47380Y-21313D01*
X47405Y-21327D01*
X47433Y-21336D01*
X47436Y-21337D01*
X47442Y-21338D01*
X47441Y-21339D01*
X47480Y-21339D01*
X47481Y-21338D01*
X47487Y-21336D01*
X47488Y-21336D01*
X47507Y-21331D01*
X47527Y-21322D01*
X47545Y-21311D01*
X47555Y-21302D01*
X47575Y-21281D01*
X47590Y-21255D01*
X47599Y-21227D01*
X47602Y-21213D01*
X47604Y-21223D01*
X47605Y-21231D01*
X47608Y-21240D01*
X47610Y-21246D01*
X47622Y-21271D01*
X47640Y-21294D01*
X47661Y-21313D01*
X47686Y-21327D01*
X47712Y-21336D01*
X47719Y-21337D01*
X47723Y-21339D01*
X47721Y-21340D01*
X47712Y-21342D01*
X47711Y-21342D01*
X47696Y-21346D01*
X47680Y-21353D01*
X47665Y-21362D01*
X47656Y-21369D01*
X47642Y-21382D01*
X47629Y-21396D01*
X47620Y-21409D01*
X47620Y-21410D01*
X47610Y-21432D01*
X47603Y-21455D01*
X47601Y-21464D01*
X47600Y-21453D01*
X47592Y-21428D01*
X47579Y-21403D01*
X47562Y-21381D01*
X47541Y-21363D01*
X47533Y-21358D01*
X47520Y-21352D01*
X47506Y-21346D01*
X47493Y-21342D01*
X47483Y-21340D01*
X47483Y-21340D01*
X47480Y-21339D01*
X47441Y-21339D01*
X47441Y-21340D01*
X47435Y-21341D01*
X47427Y-21343D01*
X47418Y-21345D01*
X47404Y-21351D01*
X47379Y-21365D01*
X47358Y-21383D01*
X47342Y-21405D01*
X47330Y-21430D01*
X47323Y-21456D01*
X47321Y-21484D01*
X47321Y-21484D01*
G37*
G36*
X47321Y-22328D02*
X47325Y-22356D01*
X47335Y-22382D01*
X47350Y-22406D01*
X47369Y-22426D01*
X47392Y-22443D01*
X47418Y-22455D01*
X47427Y-22457D01*
X47435Y-22459D01*
X47437Y-22459D01*
X47442Y-22461D01*
X47442Y-22461D01*
X47481Y-22461D01*
X47485Y-22460D01*
X47495Y-22457D01*
X47511Y-22452D01*
X47536Y-22440D01*
X47558Y-22423D01*
X47576Y-22401D01*
X47590Y-22376D01*
X47599Y-22349D01*
X47602Y-22336D01*
X47604Y-22345D01*
X47604Y-22346D01*
X47610Y-22369D01*
X47620Y-22391D01*
X47626Y-22400D01*
X47638Y-22414D01*
X47651Y-22427D01*
X47665Y-22438D01*
X47677Y-22445D01*
X47695Y-22453D01*
X47712Y-22458D01*
X47719Y-22460D01*
X47723Y-22461D01*
X47721Y-22462D01*
X47712Y-22464D01*
X47694Y-22470D01*
X47668Y-22482D01*
X47645Y-22501D01*
X47627Y-22522D01*
X47612Y-22548D01*
X47604Y-22577D01*
X47602Y-22587D01*
X47599Y-22573D01*
X47596Y-22560D01*
X47584Y-22533D01*
X47567Y-22509D01*
X47545Y-22489D01*
X47537Y-22483D01*
X47524Y-22476D01*
X47509Y-22470D01*
X47499Y-22466D01*
X47488Y-22464D01*
X47488Y-22464D01*
X47482Y-22462D01*
X47481Y-22461D01*
X47442Y-22461D01*
X47441Y-22462D01*
X47434Y-22464D01*
X47424Y-22466D01*
X47403Y-22474D01*
X47383Y-22485D01*
X47372Y-22493D01*
X47351Y-22514D01*
X47336Y-22539D01*
X47325Y-22567D01*
X47323Y-22580D01*
X47321Y-22599D01*
X47322Y-22619D01*
X47325Y-22636D01*
X47325Y-22638D01*
X47337Y-22666D01*
X47353Y-22691D01*
X47374Y-22712D01*
X47398Y-22727D01*
X47427Y-22738D01*
X47439Y-22741D01*
X47459Y-22742D01*
X47479Y-22741D01*
X47496Y-22738D01*
X47511Y-22733D01*
X47531Y-22723D01*
X47548Y-22712D01*
X47562Y-22699D01*
X47576Y-22682D01*
X47587Y-22664D01*
X47590Y-22657D01*
X47595Y-22644D01*
X47599Y-22631D01*
X47601Y-22621D01*
X47601Y-22620D01*
X47602Y-22623D01*
X47605Y-22631D01*
X47610Y-22648D01*
X47617Y-22666D01*
X47626Y-22681D01*
X47628Y-22684D01*
X47645Y-22703D01*
X47665Y-22719D01*
X47686Y-22731D01*
X47696Y-22735D01*
X47724Y-22741D01*
X47753Y-22742D01*
X47781Y-22737D01*
X47787Y-22735D01*
X47813Y-22723D01*
X47836Y-22706D01*
X47855Y-22684D01*
X47870Y-22659D01*
X47880Y-22632D01*
X47880Y-22628D01*
X47882Y-22608D01*
X47882Y-22588D01*
X47879Y-22569D01*
X47878Y-22565D01*
X47867Y-22537D01*
X47851Y-22512D01*
X47830Y-22492D01*
X47804Y-22476D01*
X47796Y-22472D01*
X47783Y-22467D01*
X47771Y-22464D01*
X47762Y-22463D01*
X47761Y-22463D01*
X47759Y-22462D01*
X47763Y-22460D01*
X47771Y-22458D01*
X47791Y-22453D01*
X47815Y-22441D01*
X47837Y-22424D01*
X47856Y-22403D01*
X47870Y-22379D01*
X47870Y-22378D01*
X47879Y-22352D01*
X47882Y-22324D01*
X47880Y-22296D01*
X47873Y-22269D01*
X47866Y-22254D01*
X47849Y-22230D01*
X47828Y-22210D01*
X47804Y-22194D01*
X47776Y-22185D01*
X47770Y-22183D01*
X47748Y-22180D01*
X47726Y-22181D01*
X47700Y-22187D01*
X47673Y-22199D01*
X47649Y-22215D01*
X47630Y-22237D01*
X47615Y-22262D01*
X47605Y-22291D01*
X47603Y-22297D01*
X47601Y-22302D01*
X47601Y-22302D01*
X47600Y-22293D01*
X47595Y-22277D01*
X47588Y-22260D01*
X47578Y-22244D01*
X47566Y-22228D01*
X47545Y-22208D01*
X47519Y-22193D01*
X47515Y-22191D01*
X47488Y-22183D01*
X47459Y-22180D01*
X47430Y-22184D01*
X47403Y-22193D01*
X47390Y-22199D01*
X47377Y-22208D01*
X47364Y-22220D01*
X47363Y-22221D01*
X47344Y-22244D01*
X47331Y-22269D01*
X47323Y-22297D01*
X47322Y-22300D01*
X47321Y-22328D01*
X47321Y-22328D01*
G37*
%LPC*%
G54D14*
X53100Y-24600D03*
X52100Y-23600D03*
X53100Y-22600D03*
G54D15*
X44300Y-20100D03*
G54D16*
X44300Y-21100D03*
X44300Y-22100D03*
X44300Y-23100D03*
X44300Y-24100D03*
X44300Y-25100D03*
X44300Y-26100D03*
X44300Y-27100D03*
G54D15*
X43300Y-20100D03*
G54D16*
X43300Y-21100D03*
X43300Y-22100D03*
X43300Y-23100D03*
X43300Y-24100D03*
X43300Y-25100D03*
X43300Y-26100D03*
X43300Y-27100D03*
G54D15*
X53300Y-20100D03*
G54D16*
X52300Y-20100D03*
X51300Y-20100D03*
X50300Y-20100D03*
X49300Y-20100D03*
X48300Y-20100D03*
X47300Y-20100D03*
X46300Y-20100D03*
G54D15*
X53300Y-27100D03*
G54D16*
X52300Y-27100D03*
X51300Y-27100D03*
X50300Y-27100D03*
X49300Y-27100D03*
X48300Y-27100D03*
X47300Y-27100D03*
X46300Y-27100D03*
M02*
